<?xml version="1.0" encoding="utf-8"?>
<!-- Generator: Adobe Illustrator 19.0.0, SVG Export Plug-In . SVG Version: 6.00 Build 0)  -->
<svg version="1.1" id="Layer_1" xmlns="http://www.w3.org/2000/svg" xmlns:xlink="http://www.w3.org/1999/xlink" x="0px" y="0px"
	 width="1400px" height="1400px" viewBox="0 0 1400 1400" enable-background="new 0 0 1400 1400" xml:space="preserve">
<rect id="XMLID_691_" fill="#E69C52" width="1400" height="1400"/>
<g id="XMLID_1016_">
	<g id="XMLID_718_">
		<circle id="XMLID_690_" fill="#CAE7D9" cx="700" cy="722.1" r="405.4"/>
	</g>
	<g id="XMLID_1017_">
		<path id="XMLID_1018_" fill="#E7B16D" d="M575.8,1097.7c-0.2,0-0.5,0.1-0.7,0.1c-0.3,0-0.5,0-0.8-0.1l-18-2.6v6.2
			c12.3,4.6,24.8,8.7,37.6,12.2v-18.3L575.8,1097.7z"/>
		<path id="XMLID_1033_" fill="#E7B16D" d="M604.6,1093.7v22.6c7.2,1.7,14.5,3.3,21.9,4.6v-30.3L604.6,1093.7z"/>
		<path id="XMLID_1034_" fill="#E7B16D" d="M533.1,1091.7c4.1,1.9,8.2,3.6,12.4,5.3v-3.5L533.1,1091.7z"/>
		<path id="XMLID_1035_" fill="#E7B16D" d="M927.5,910.5l-106.4-81.1c-0.6-0.5-1.2-1.1-1.7-1.7l-27.6,117.3
			c-0.8,3.5-3.4,6.2-6.8,7.3c-1,0.3-2,0.4-3,0.4c-2.5,0-4.9-0.9-6.7-2.6l-43.9-39.9v216c61.4-4.7,119-23.1,169.8-52.2v-49H912v42.6
			c22.5-13.8,43.5-29.8,62.8-47.6c-8.1-39.9-23.6-76.3-46.2-108.9C928.2,911,927.9,910.8,927.5,910.5z"/>
		<polygon id="XMLID_1036_" fill="#E7B16D" points="523.6,1060.8 523.6,1079.5 575.1,1086.9 626.5,1079.7 626.5,1060.8 		"/>
		<path id="XMLID_1037_" fill="#E7B16D" d="M624.9,950.2c-1.9,1.7-4.3,2.6-6.7,2.6c-1,0-2-0.1-3-0.4c-3.4-1-6-3.8-6.8-7.3
			l-27.6-117.3c-0.5,0.6-1.1,1.2-1.7,1.7l-106.4,81.1c-0.6,0.4-1.2,0.8-1.9,1.1c-22.4,32.5-37.7,68.7-45.9,108.3
			c22.1,20.4,46.4,38.4,72.6,53.5v-48.3h10.8v54.3c1.5,0.8,3,1.6,4.5,2.4v-26.5c0-3,2.4-5.4,5.4-5.4h113.6c3,0,5.4,2.4,5.4,5.4v67.3
			c10.4,1.6,20.9,2.8,31.5,3.6V910.3L624.9,950.2z"/>
		<path id="XMLID_1040_" fill="#E7B16D" d="M700.1,881.8l-20.6,18.7V1127c5.4,0.3,10.7,0.4,16.2,0.5c1.3-0.6,2.8-1,4.4-1
			c1.6,0,3.1,0.4,4.4,1c5.4-0.1,10.8-0.2,16.2-0.5V900.5L700.1,881.8z M700.1,923.8c5.6,0,10.2,4.6,10.2,10.2s-4.6,10.2-10.2,10.2
			c-5.6,0-10.2-4.6-10.2-10.2S694.5,923.8,700.1,923.8z M700.1,1045.5c-5.6,0-10.2-4.6-10.2-10.2c0-5.6,4.6-10.2,10.2-10.2
			c5.6,0,10.2,4.6,10.2,10.2C710.3,1041,705.8,1045.5,700.1,1045.5z"/>
		<path id="XMLID_1042_" fill="#F6BE7E" d="M684.3,869.1l-64.7-47.5c-7.2-5.3-11.5-13.7-11.5-22.6v-0.5l-12,7.4L624,924L684.3,869.1
			z"/>
		<path id="XMLID_1043_" fill="#F6BE7E" d="M791.6,798.1v1.6c0,8.9-4.3,17.4-11.5,22.7l-64.1,46.7l60.3,54.8l27.8-118.1L791.6,798.1
			z"/>
		<path id="XMLID_1044_" fill="#E57B69" d="M628.2,799c0,2.6,1.2,5,3.3,6.5l68.7,50.4l68.1-49.7c2.1-1.5,3.3-3.9,3.3-6.5v-34.2
			c-22.1,9.2-46.3,14.3-71.7,14.3c-25.4,0-49.6-5.1-71.7-14.3V799z"/>
		<path id="XMLID_1047_" fill="#EE9784" d="M699.9,759.8L699.9,759.8c92.1,0,167-74.9,167-167v-69c-18.3,6.4-42.8,12.2-75.5,16
			c2.9,2.7,4.8,6.5,4.8,10.8c0,8.1-6.5,14.6-14.6,14.6s-14.6-6.5-14.6-14.6c0-3.2,1.1-6.2,2.9-8.7c-20.4,1.7-43.6,2.6-69.8,2.6
			c-26.4,0-49.6-1-70.1-2.7c1.8,2.4,2.9,5.4,2.9,8.7c0,8.1-6.5,14.6-14.6,14.6s-14.6-6.5-14.6-14.6c0-4.3,1.9-8.2,4.8-10.8
			c-32.7-3.8-57.2-9.7-75.5-16.1v69.1C532.9,684.8,607.8,759.8,699.9,759.8z M658.2,624.1c6.8-1.9,12.8-1.8,18.1-0.7
			c1.5-0.8,3.3-0.9,4.9,0c0.2,0.1,20.7,10.3,37.4,0.2c1.6-1,3.6-1,5.2-0.2c5.2-1.1,11.2-1.1,17.9,0.7c26.1,7.1,42.5,47.2,81.6,33.7
			c0,0-46.9,71-123.4,5.5c-76.4,65.5-123.4-5.5-123.4-5.5C615.7,671.3,632.2,631.2,658.2,624.1z"/>
		<path id="XMLID_1050_" fill="#E57B69" d="M513.8,611.5c-0.6-6.2-0.9-12.4-0.9-18.7v-74.4c-0.7-1.2-1.6-2.8-2.9-4.5
			c-10.2-5.4-17.1-10.8-21.8-15.4c-5.2-0.9-11.2-0.3-18,2.9c-17.2,8.1-22.7,45.8-11,75.9C465.5,593.4,480.7,618.3,513.8,611.5z
			 M472.1,531c2.9-6.4,8.4-11,16.5-13.8c2.8-1,5.9,0.5,6.9,3.3c1,2.8-0.5,5.9-3.3,6.9c-5.1,1.8-8.5,4.4-10.1,8
			c-2.6,5.6-0.1,12.1-0.1,12.1c1.1,2.8-0.2,5.9-3,7c-0.7,0.3-1.3,0.4-2,0.4c-2.1,0-4.1-1.3-5-3.3C471.7,551.1,467.6,540.9,472.1,531
			z"/>
		<path id="XMLID_1053_" fill="#E57B69" d="M929.6,501.3c-6.6-3.1-12.6-3.7-17.7-2.8c-4.7,4.7-11.7,10.1-22.2,15.6
			c-1.2,1.7-2.1,3.2-2.8,4.3v74.4c0,6.3-0.3,12.6-0.9,18.7c33,6.9,48.3-18.1,54.6-34.3C952.2,547,946.8,509.4,929.6,501.3z
			 M928.3,551.6c-0.9,2.1-2.9,3.3-5,3.3c-0.7,0-1.4-0.1-2-0.4c-2.7-1.1-4.1-4.3-3-7c0.1-0.2,2.5-6.5-0.1-12.1c-1.6-3.5-5-6.2-10.1-8
			c-2.8-1-4.3-4-3.3-6.9c1-2.8,4-4.3,6.9-3.3c8.1,2.8,13.6,7.4,16.5,13.8C932.6,540.9,928.5,551.1,928.3,551.6z"/>
		<path id="XMLID_1054_" fill="#4E1D0F" d="M476.9,554.9c0.7,0,1.4-0.1,2-0.4c2.7-1.1,4.1-4.2,3-7c0-0.1-2.5-6.5,0.1-12.1
			c1.6-3.5,5-6.2,10.1-8c2.8-1,4.3-4,3.3-6.9c-1-2.8-4-4.3-6.9-3.3c-8.1,2.8-13.6,7.4-16.5,13.8c-4.5,9.9-0.4,20.1-0.2,20.5
			C472.8,553.7,474.8,554.9,476.9,554.9z"/>
		<path id="XMLID_1055_" fill="#4E1D0F" d="M911.7,517.3c-2.8-1-5.9,0.5-6.9,3.3c-1,2.8,0.5,5.9,3.3,6.9c5.1,1.8,8.5,4.4,10.1,8
			c2.6,5.6,0.1,11.9,0.1,12.1c-1.1,2.7,0.2,5.9,3,7c0.7,0.3,1.4,0.4,2,0.4c2.1,0,4.1-1.3,5-3.3c0.2-0.4,4.3-10.6-0.2-20.5
			C925.3,524.7,919.7,520.1,911.7,517.3z"/>
		<path id="XMLID_1056_" fill="#E7B16D" d="M532.3,274.6c-44.9,30.3-72.8,65.8-72.6,92.6c0.1,13.2,6.8,24.1,20.7,33.3
			c1.4,0.9,2.6,2.2,3.4,3.7l7.5,14.5c23-18.4,85.9-57,209.1-57c123,0,185.5,38.5,208.4,57l7.5-14.4c0.8-1.5,1.9-2.8,3.4-3.7
			c13.9-9.2,20.7-20,20.7-33.3c0.1-26.8-27.7-62.3-72.6-92.6c-11.1-7.5-24.3-14.6-39-21C787.8,235.9,743.9,227,700,227
			c-43.9,0-87.8,8.9-128.6,26.6C556.6,260.1,543.4,267.1,532.3,274.6z"/>
		<path id="XMLID_1057_" fill="#999743" d="M498.4,467.8c67-21.8,134.7-32.8,201.6-32.8s134.6,11,201.6,32.8V439
			c-5.2-4.8-18.9-16.1-42.9-27.3c-29.4-13.7-80.7-30-158.3-30c-77.7,0-129.2,16.3-158.7,30c-24.1,11.2-37.9,22.5-43.2,27.3V467.8z"
			/>
		<path id="XMLID_1058_" fill="#AF4E26" d="M700,524.5c132.6,0,179.3-24.5,194.9-37.8c-129.4-42-260.4-42-389.8,0
			C520.7,500,567.4,524.5,700,524.5z"/>
		<path id="XMLID_1059_" fill="#4E1D0F" d="M700,663.3c76.4,65.5,123.4-5.5,123.4-5.5c-39.1,13.5-55.6-26.5-81.6-33.7
			c-6.7-1.8-12.7-1.8-17.9-0.7c-1.6-0.8-3.6-0.8-5.2,0.2c-16.6,10.1-37.2-0.1-37.4-0.2c-1.6-0.8-3.5-0.7-4.9,0
			c-5.3-1.1-11.3-1.1-18.1,0.7c-26.1,7.1-42.5,47.2-81.6,33.7C576.6,657.8,623.6,728.8,700,663.3z"/>
		<path id="XMLID_1062_" fill="#4E1D0F" d="M631.9,1050H518.2c-3,0-5.4,2.4-5.4,5.4v26.5c6.6,3.5,13.4,6.8,20.3,9.9l12.4,1.8v3.5
			c3.6,1.5,7.2,2.9,10.8,4.3v-6.2l18,2.6c0.3,0,0.5,0.1,0.8,0.1c0.2,0,0.5,0,0.7-0.1l18-2.5v18.3c3.6,1,7.2,1.9,10.8,2.8v-22.6
			l21.9-3.1v30.3c3.6,0.7,7.2,1.3,10.8,1.8v-67.3C637.3,1052.4,634.9,1050,631.9,1050z M575.1,1086.9l-51.5-7.5v-18.7h102.9v19
			L575.1,1086.9z"/>
		<circle id="XMLID_1063_" fill="#4E1D0F" cx="700.1" cy="934" r="10.2"/>
		<circle id="XMLID_1064_" fill="#4E1D0F" cx="700.1" cy="1035.3" r="10.2"/>
		<path id="XMLID_1065_" fill="#4E1D0F" d="M695.7,1127.5c1.4,0,2.9,0.1,4.3,0.1c1.5,0,3,0,4.5-0.1c-1.3-0.6-2.8-1-4.4-1
			C698.5,1126.5,697,1126.9,695.7,1127.5z"/>
		<polygon id="XMLID_1066_" fill="#E5E759" points="495.5,879.6 506.8,871 491.4,849.5 480.5,857.6 		"/>
		<polygon id="XMLID_1067_" fill="#E5E759" points="477.1,893.1 488.4,884.6 473,863 462.1,871.2 		"/>
		<path id="XMLID_1070_" fill="#4E1D0F" d="M957.2,886.3c3.1-4.4,2.1-10.5-2.2-13.8l-121.7-90.8c-3-2.3-7.1-2.6-10.5-0.9
			c-3.4,1.7-5.5,5.1-5.5,8.9l0,0.8l-25.7-16v-18.9c46.1-26.1,80.1-71.1,91.3-124.4c4.6,0.9,9.1,1.3,13.5,1.3
			c27.7,0,50.8-17.2,62.8-48.1c7.1-18.2,9.4-39.3,6.4-57.9c-3.4-21.2-13.2-36.6-27.5-43.3c-5.8-2.7-11.3-4.3-16.5-5v-41l11.2-21.5
			c22.5-15.8,27.4-34.9,27.5-48.4c0.2-33.9-30.3-74.8-81.5-109.3c-12.1-8.2-26.3-15.8-42.3-22.8c-86.8-37.7-186.4-37.7-273.2,0
			c-15.9,6.9-30.1,14.6-42.3,22.8c-51.2,34.5-81.6,75.4-81.5,109.3c0.1,13.4,5,32.5,27.5,48.4l11.2,21.5v40.9
			c-5.3,0.6-10.9,2.2-16.7,5c-14.3,6.8-24.1,22.1-27.5,43.3c-3,18.6-0.7,39.7,6.4,57.9c12,31,35.1,48.1,62.8,48.1
			c4.4,0,8.9-0.4,13.5-1.3c11.2,53.3,45.2,98.4,91.3,124.4v19.2L583,790.6l0-0.8c0-3.8-2.1-7.2-5.5-8.9c-3.4-1.7-7.4-1.3-10.5,0.9
			l-121.7,90.8c-4.3,3.2-5.3,9.3-2.2,13.8l10.6,15.2c-18.4,27.1-35.2,61-45.4,102.1c5.4,5.6,10.9,11,16.6,16.3
			c8.1-39.6,23.4-75.8,45.9-108.3c0.7-0.3,1.3-0.7,1.9-1.1l106.4-81.1c0.6-0.5,1.2-1.1,1.7-1.7l27.6,117.3c0.8,3.5,3.4,6.2,6.8,7.3
			c1,0.3,2,0.4,3,0.4c2.5,0,4.9-0.9,6.7-2.6l43.9-39.9v216.1c3.6,0.3,7.2,0.5,10.8,0.7V900.5l20.6-18.7l20.6,18.7V1127
			c3.6-0.2,7.2-0.4,10.8-0.7v-216l43.9,39.9c1.9,1.7,4.3,2.6,6.7,2.6c1,0,2-0.1,3-0.4c3.4-1,6-3.8,6.8-7.3l27.6-117.3
			c0.5,0.6,1.1,1.2,1.7,1.7l106.4,81.1c0.3,0.3,0.7,0.5,1.1,0.7c22.6,32.7,38.1,69,46.2,108.9c5.7-5.3,11.3-10.7,16.7-16.3
			c-10.2-41.1-26.9-74.9-45.2-102L957.2,886.3z M938.2,871.2l-15,21.9l-11.3-8.6l15.4-21.5L938.2,871.2z M919.8,857.6l-15,21.9
			l-11.3-8.6l15.4-21.5L919.8,857.6z M608.2,798.4v0.5c0,8.9,4.3,17.4,11.5,22.6l64.7,47.5L624,924l-27.8-118.1L608.2,798.4z
			 M470.2,501.3c6.7-3.2,12.7-3.8,18-2.9c4.7,4.7,11.6,10,21.8,15.4c1.3,1.8,2.2,3.3,2.9,4.5v74.4c0,6.3,0.3,12.6,0.9,18.7
			c-33,6.9-48.3-18.1-54.6-34.3C447.5,547,452.9,509.4,470.2,501.3z M828.6,253.6c14.8,6.4,27.9,13.5,39,21
			c44.9,30.3,72.8,65.8,72.6,92.6c-0.1,13.2-6.8,24.1-20.7,33.3c-1.4,0.9-2.6,2.2-3.4,3.7l-7.5,14.4c-22.9-18.4-85.4-57-208.4-57
			c-123.2,0-186.1,38.6-209.1,57l-7.5-14.5c-0.8-1.5-1.9-2.8-3.4-3.7c-13.9-9.2-20.7-20-20.7-33.3c-0.1-26.8,27.7-62.3,72.6-92.6
			c11.1-7.5,24.2-14.6,39-21C612.2,235.9,656.1,227,700,227C743.9,227,787.8,235.9,828.6,253.6z M940.5,577.2
			c-6.3,16.2-21.5,41.2-54.6,34.3c0.6-6.2,0.9-12.4,0.9-18.7v-74.4c0.6-1.1,1.6-2.6,2.8-4.3c10.4-5.5,17.4-10.9,22.2-15.6
			c5.2-0.9,11.1-0.3,17.7,2.8C946.8,509.4,952.2,547,940.5,577.2z M541.6,411.7c29.5-13.7,81.1-30,158.7-30
			c77.6,0,129,16.3,158.3,30c24,11.2,37.7,22.5,42.9,27.3v28.9C834.6,446.1,766.9,435,700,435s-134.6,11-201.6,32.8V439
			C503.7,434.1,517.5,422.8,541.6,411.7z M894.9,486.7c-15.6,13.3-62.3,37.8-194.9,37.8S520.7,500,505.1,486.7
			C634.5,444.8,765.5,444.8,894.9,486.7z M532.9,523.6c18.3,6.4,42.8,12.3,75.5,16.1c-3,2.7-4.8,6.5-4.8,10.8
			c0,8.1,6.5,14.6,14.6,14.6s14.6-6.5,14.6-14.6c0-3.3-1.1-6.3-2.9-8.7c20.5,1.7,43.7,2.7,70.1,2.7c26.3,0,49.4-1,69.8-2.6
			c-1.8,2.4-2.9,5.4-2.9,8.7c0,8.1,6.5,14.6,14.6,14.6s14.6-6.5,14.6-14.6c0-4.3-1.9-8.1-4.8-10.8c32.6-3.8,57.1-9.6,75.5-16v69
			c0,92.1-74.9,167-167,167h0c-92.1,0-167-74.9-167-167V523.6z M699.9,779.8c25.4,0,49.6-5.1,71.7-14.3v34.2c0,2.6-1.2,5-3.3,6.5
			l-68.1,49.7l-68.7-50.4c-2.1-1.5-3.3-3.9-3.3-6.5v-33.5C650.3,774.7,674.5,779.8,699.9,779.8z M715.9,869.1l64.1-46.7
			c7.2-5.3,11.5-13.7,11.5-22.7v-1.6l12.5,7.8L776.2,924L715.9,869.1z M491.4,849.5l15.4,21.5l-11.3,8.6l-15-21.9L491.4,849.5z
			 M473,863l15.4,21.5l-11.3,8.6l-15-21.9L473,863z"/>
		<polygon id="XMLID_1083_" fill="#E5E759" points="893.5,871 904.7,879.6 919.8,857.6 908.8,849.5 		"/>
		<polygon id="XMLID_1084_" fill="#E5E759" points="911.9,884.6 923.1,893.1 938.2,871.2 927.3,863 		"/>
		<path id="XMLID_1085_" fill="#4E1D0F" d="M497.6,1025.1v48.3c3.6,2.1,7.2,4,10.8,6v-54.3H497.6z"/>
		<path id="XMLID_1086_" fill="#4E1D0F" d="M901.2,1025.1v49c3.6-2.1,7.2-4.2,10.8-6.4v-42.6H901.2z"/>
	</g>
	<g id="XMLID_917_">
		<path id="XMLID_974_" fill="#4E1D0F" d="M700,1137.6c-111,0-215.3-43.2-293.8-121.7c-78.5-78.5-121.7-182.8-121.7-293.8
			c0-66.2,16-132.1,46.2-190.5c29.2-56.5,71.8-106.4,123.2-144.2l11.9,16.1C364.8,477.9,304.6,597,304.6,722.1
			c0,218,177.4,395.4,395.4,395.4c218,0,395.4-177.4,395.4-395.4c0-125.2-60.3-244.3-161.2-318.6l11.9-16.1
			c51.4,37.8,93.9,87.7,123.2,144.2c30.2,58.4,46.2,124.3,46.2,190.5c0,111-43.2,215.3-121.7,293.8
			C915.3,1094.3,811,1137.6,700,1137.6z"/>
	</g>
</g>
</svg>
