<?xml version="1.0" encoding="utf-8"?>
<!-- Generator: Adobe Illustrator 18.0.0, SVG Export Plug-In . SVG Version: 6.00 Build 0)  -->
<!DOCTYPE svg PUBLIC "-//W3C//DTD SVG 1.1//EN" "http://www.w3.org/Graphics/SVG/1.1/DTD/svg11.dtd">
<svg version="1.1" id="Layer_1" xmlns="http://www.w3.org/2000/svg" xmlns:xlink="http://www.w3.org/1999/xlink" x="0px" y="0px"
	 viewBox="0 0 1400 1100" enable-background="new 0 0 1400 1100" xml:space="preserve">
<g>
	<rect fill="#FFFFFF" width="1400" height="1100"/>
	<g>
		<g>
			<path fill="#F8C48E" d="M765.6,221.1c-5.6-4.4-12.5-6.8-19.6-6.8H730h-37.6h0c-9.6,0-18.5,5.2-23.2,13.5l-5.8,10.3l21.4,8.3
				l-1.7,2.6c-5.5,8.3-14.7,13.3-24.6,13.3c-2.4,0-4.8-0.3-7.2-0.9l-0.9-0.2l-1.9,3.4c15.9,6.3,35.2,1.6,45.7-11.7l21.4-26.4
				l7.8,6.3l-0.5,0.6c13.1,5.9,25.1,14.2,35.3,24.5l37.8,38c8.6,8.6,13.3,20.1,13.3,32.2v32.2h64.5v-98.8h-57L765.6,221.1z"/>
			<path fill="#37474F" d="M771.8,213.3c-7.3-5.8-16.5-9-25.8-9H730h-37.6h0c-13.2,0-25.4,7.1-31.9,18.6l-0.2,0.3
				c-5.6,0.6-11.2,1.6-16.7,3.1l-84.5,21.8h-73.4v121.2h56.5c-1.8,11.8,4.8,23.6,16.4,27.9l3.7,1.4c2.8,1.1,5.8,1.6,8.8,1.6
				c5.1,0,9.9-1.5,14-4.2c0.4,1.2,0.8,2.4,1.3,3.6c2.9,6.2,7.9,10.9,14.3,13.3l3.7,1.4c2.8,1.1,5.8,1.6,8.8,1.6
				c5.1,0,9.9-1.5,14-4.2c2.2,7.5,7.8,13.9,15.7,16.8l3.7,1.4c2.8,1.1,5.8,1.6,8.8,1.6c5.1,0,9.9-1.5,14-4.2
				c2.2,7.5,7.8,13.9,15.7,16.8l3.7,1.4c2.8,1.1,5.8,1.6,8.8,1.6c7,0,13.6-2.9,18.3-7.8h5c10.1,0,18.6-7,20.9-16.4h9.9
				c13.8,0,25.4-10.1,27.6-23.3c15.2-2,27.3-13.9,29.6-29h74.9V251.4h-63.5L771.8,213.3z M799.2,365c0,11.8-8.4,21.8-19.6,24.1
				v-53.4c0-8.6-3.4-16.7-9.5-22.8l-23.8-23.8l-7.1,7.1l23.8,23.8c4.2,4.2,6.5,9.8,6.5,15.8v53.9v5c0,9.9-8.1,18-18,18h-9.3v-38.8
				l4.5-12.1c2.4-6.4,2.1-13.3-0.8-19.5c-2.9-6.2-7.9-10.9-14.3-13.3l-3.7-1.4c-2.8-1.1-5.8-1.6-8.8-1.6c-3.1,0-6.1,0.6-8.9,1.6
				c0.2-4.1-0.5-8.3-2.3-12.1c-2.9-6.2-7.9-10.9-14.3-13.3l-3.7-1.4c-2.8-1.1-5.8-1.6-8.8-1.6c-2.9,0-5.7,0.5-8.3,1.4
				c1.2-8.8-2.4-17.7-9.3-23.2c14.7,0,29.1-6.4,38.5-18.4l14.3-17.7c12.9,5.5,24.7,13.4,34.7,23.4l37.8,38
				c6.7,6.7,10.4,15.7,10.4,25.2V365z M732.3,417.5c0,6-4.6,10.8-10.4,11.4l10.4-28.1v11.7V417.5z M692.2,435.8l-3.7-1.4
				c-8-3-12.1-11.9-9.2-19.9l25.3-68.5c2.2-6.1,8.1-10.1,14.5-10.1c1.8,0,3.6,0.3,5.4,1l3.7,1.4c3.9,1.4,7,4.3,8.7,8.1
				s1.9,8,0.5,11.9l-4.9,13.3h-0.2v0.4l-20.2,54.7c-2.2,6.1-8.1,10.1-14.5,10.1C695.8,436.8,694,436.5,692.2,435.8z M650.1,420.3
				l-3.7-1.4c-8-3-12.1-11.9-9.2-19.9l29.4-79.6c2.2-6.1,8.1-10.1,14.5-10.1c1.8,0,3.6,0.3,5.4,1l3.7,1.4c3.9,1.4,7,4.3,8.7,8.1
				c1.7,3.8,1.9,8,0.5,11.9L670,411.1c-2.2,6.1-8.1,10.1-14.5,10.1C653.6,421.2,651.8,420.9,650.1,420.3z M607.9,404.7l-3.7-1.4
				c-3.9-1.4-7-4.3-8.7-8.1c-1.7-3.8-1.9-8-0.5-11.9l34.3-92.9c2.2-6.1,8.1-10.1,14.5-10.1c1.8,0,3.6,0.3,5.4,1l3.7,1.4
				c8,3,12.1,11.9,9.2,19.9l-4.9,13.2c0,0,0,0,0,0l-29.4,79.6c-2.2,6.1-8.1,10.1-14.5,10.1C611.5,405.7,609.7,405.3,607.9,404.7z
				 M565.8,389.1l-3.7-1.4c-8-3-12.1-11.9-9.2-19.9l27.6-74.6c2.2-6.1,8.1-10.1,14.5-10.1c1.8,0,3.6,0.3,5.4,1l3.7,1.4
				c3.9,1.4,7,4.3,8.7,8.1c1.7,3.8,1.9,8,0.5,11.8L585.7,380c-2.2,6.1-8.1,10.1-14.5,10.1C569.3,390.1,567.5,389.8,565.8,389.1z
				 M495.7,258.1h64.7l85.7-22.1c2.7-0.7,5.3-1.3,8-1.7l-19.4,34.4l4,2.3c-8.3,1.7-15.4,7.4-18.6,15.4c-3-4.7-7.4-8.4-12.7-10.4
				l-3.7-1.4c-2.8-1.1-5.8-1.6-8.8-1.6c-10.6,0-20.2,6.7-23.9,16.7l-25.7,69.5h-49.7V258.1z M737.3,371.5L737.3,371.5L737.3,371.5z
				 M653.3,256.7l7.9-14.1l15.9,6.2c-4.6,5.4-11.3,8.5-18.5,8.5C656.8,257.3,655.1,257.1,653.3,256.7z M873.7,360.2h-64.5V328
				c0-12.1-4.7-23.6-13.3-32.2l-37.8-38c-10.2-10.3-22.2-18.5-35.3-24.5l0.5-0.6l-7.8-6.3l-21.4,26.4c-10.5,13.3-29.8,18-45.7,11.7
				l1.9-3.4l0.9,0.2c2.3,0.6,4.8,0.9,7.2,0.9c9.9,0,19.1-5,24.6-13.3l1.7-2.6l-21.4-8.3l5.8-10.3c4.7-8.4,13.6-13.5,23.2-13.5h0H730
				H746c7.1,0,14.1,2.4,19.6,6.8l51.1,40.3h57V360.2z M730,209.3L730,209.3L730,209.3L730,209.3z M737.3,417.5L737.3,417.5
				L737.3,417.5z M774.6,394.6L774.6,394.6L774.6,394.6L774.6,394.6z"/>
			<path fill="#F8C48E" d="M722,428.9c5.8-0.5,10.4-5.4,10.4-11.4v-5v-11.7L722,428.9z"/>
			<path fill="#F8C48E" d="M571.1,289.8c3.7-10,13.3-16.7,23.9-16.7c3,0,6,0.5,8.8,1.6l3.7,1.4c5.3,2,9.8,5.6,12.7,10.4
				c3.2-8,10.3-13.7,18.6-15.4l-4-2.3l19.4-34.4c-2.7,0.5-5.4,1.1-8,1.7l-85.7,22.1h-64.7v101.2h49.7L571.1,289.8z"/>
			<path fill="#F8C48E" d="M799.2,328c0-9.5-3.7-18.4-10.4-25.2l-37.8-38c-10-10-21.8-17.9-34.7-23.4l-14.3,17.7
				c-9.4,11.9-23.8,18.3-38.5,18.4c6.9,5.5,10.4,14.4,9.3,23.2c2.6-0.9,5.4-1.4,8.3-1.4c3,0,6,0.5,8.8,1.6l3.7,1.4
				c6.4,2.4,11.5,7.1,14.3,13.3c1.8,3.9,2.6,8,2.3,12.1c2.8-1,5.8-1.6,8.9-1.6c3,0,6,0.5,8.8,1.6l3.7,1.4
				c6.4,2.4,11.5,7.1,14.3,13.3c2.8,6.2,3.1,13.1,0.8,19.5l-4.5,12.1v38.8h9.3c9.9,0,18-8.1,18-18v-5v-53.9c0-6-2.3-11.6-6.5-15.8
				l-23.8-23.8l7.1-7.1l23.8,23.8c6.1,6.1,9.5,14.2,9.5,22.8V389c11.2-2.3,19.6-12.2,19.6-24.1V328z"/>
			<path fill="#F8C48E" d="M585.7,380l27.6-74.6c1.4-3.9,1.3-8.1-0.5-11.8c-1.7-3.8-4.8-6.6-8.7-8.1l-3.7-1.4c-1.7-0.6-3.5-1-5.4-1
				c-6.5,0-12.3,4.1-14.5,10.1l-27.6,74.6c-3,8,1.2,16.9,9.2,19.9l3.7,1.4c1.7,0.6,3.5,1,5.4,1C577.6,390.1,583.4,386,585.7,380z
				 M584.7,294.8c1.6-4.3,5.7-7.2,10.3-7.2c1.3,0,2.6,0.2,3.8,0.7l3.7,1.4c2.8,1,5,3,6.2,5.7s1.3,5.7,0.3,8.4l-3.5,9.6l-24.7-8.1
				L584.7,294.8z"/>
			<path fill="#F8C48E" d="M627.8,395.5l29.4-79.6c0,0,0,0,0,0l4.9-13.2c3-8-1.2-16.9-9.2-19.9l-3.7-1.4c-1.7-0.6-3.5-1-5.4-1
				c-6.5,0-12.3,4.1-14.5,10.1L595,383.4c-1.4,3.9-1.3,8.1,0.5,11.9c1.7,3.8,4.8,6.6,8.7,8.1l3.7,1.4c1.7,0.6,3.5,1,5.4,1
				C619.7,405.7,625.6,401.6,627.8,395.5z M633.6,292.1c1.6-4.3,5.7-7.2,10.3-7.2c1.3,0,2.6,0.2,3.8,0.7l3.7,1.4c2.8,1,5,3,6.2,5.7
				c1.2,2.7,1.3,5.7,0.3,8.4l-3.4,9.2l-24.7-8.1L633.6,292.1z"/>
			<path fill="#F8C48E" d="M670,411.1l29.4-79.6c1.4-3.9,1.3-8.1-0.5-11.9c-1.7-3.8-4.8-6.6-8.7-8.1l-3.7-1.4c-1.7-0.6-3.5-1-5.4-1
				c-6.5,0-12.3,4.1-14.5,10.1L637.2,399c-3,8,1.2,16.9,9.2,19.9l3.7,1.4c1.7,0.6,3.5,1,5.4,1C661.9,421.2,667.7,417.2,670,411.1z
				 M670.8,320.9c1.6-4.3,5.7-7.2,10.3-7.2c1.3,0,2.6,0.2,3.8,0.7l3.7,1.4c2.8,1,4.9,3,6.2,5.7c1.2,2.7,1.3,5.7,0.3,8.4l-3.6,9.7
				l-24.7-8.1L670.8,320.9z"/>
			<path fill="#F8C48E" d="M712.1,426.7l20.2-54.7v-0.4h0.2l4.9-13.3c1.4-3.9,1.3-8.1-0.5-11.9s-4.8-6.6-8.7-8.1l-3.7-1.4
				c-1.7-0.6-3.5-1-5.4-1c-6.5,0-12.3,4.1-14.5,10.1l-25.3,68.5c-3,8,1.2,16.9,9.2,19.9l3.7,1.4c1.7,0.6,3.5,1,5.4,1
				C704.1,436.8,709.9,432.7,712.1,426.7z M708.9,347.6c1.6-4.3,5.7-7.2,10.3-7.2c1.3,0,2.6,0.2,3.8,0.7l3.7,1.4
				c2.8,1,4.9,3,6.2,5.7c1.2,2.7,1.3,5.7,0.3,8.4l-3.4,9.2l-24.7-8.1L708.9,347.6z"/>
			<polygon fill="#FFFFFF" points="774.6,394.6 774.6,394.6 774.6,394.6 			"/>
			
				<line fill="none" stroke="#FFFFFF" stroke-width="0" stroke-linecap="round" stroke-linejoin="round" x1="737.3" y1="371.5" x2="737.3" y2="371.5"/>
			
				<line fill="none" stroke="#FFFFFF" stroke-width="0" stroke-linecap="round" stroke-linejoin="round" x1="737.3" y1="417.5" x2="737.3" y2="417.5"/>
			<polygon fill="#FFFFFF" points="730,209.3 730,209.3 730,209.3 			"/>
			<path fill="#F8D9BD" d="M604.1,297.5c-0.7-1.5-1.9-2.6-3.4-3.1l-3.7-1.4c-0.7-0.2-1.4-0.4-2.1-0.4c-2.5,0-4.8,1.6-5.6,3.9
				l-2.1,5.6l15.1,5l1.9-5.1C604.9,300.5,604.8,298.9,604.1,297.5z"/>
			<path fill="#37474F" d="M609,303.8c1-2.8,0.9-5.7-0.3-8.4s-3.4-4.7-6.2-5.7l-3.7-1.4c-1.2-0.5-2.5-0.7-3.8-0.7
				c-4.6,0-8.7,2.9-10.3,7.2l-3.9,10.5l24.7,8.1L609,303.8z M587.3,302.1l2.1-5.6c0.9-2.3,3.1-3.9,5.6-3.9c0.7,0,1.4,0.1,2.1,0.4
				l3.7,1.4c1.5,0.6,2.7,1.7,3.4,3.1c0.7,1.5,0.7,3.1,0.2,4.6l-1.9,5.1L587.3,302.1z"/>
			<path fill="#F8D9BD" d="M653,294.8c-0.7-1.5-1.9-2.6-3.4-3.1l-3.7-1.4c-0.7-0.2-1.4-0.4-2.1-0.4c-2.5,0-4.8,1.6-5.6,3.9l-1.9,5.2
				l15.1,5l1.7-4.6C653.8,297.9,653.7,296.3,653,294.8z"/>
			<path fill="#37474F" d="M657.9,301.1c1-2.8,0.9-5.7-0.3-8.4c-1.2-2.7-3.4-4.7-6.2-5.7l-3.7-1.4c-1.2-0.5-2.5-0.7-3.8-0.7
				c-4.6,0-8.7,2.9-10.3,7.2l-3.7,10l24.7,8.1L657.9,301.1z M636.3,299l1.9-5.2c0.9-2.3,3.1-3.9,5.6-3.9c0.7,0,1.4,0.1,2.1,0.4
				l3.7,1.4c1.5,0.6,2.7,1.7,3.4,3.1c0.7,1.5,0.7,3.1,0.2,4.6l-1.7,4.6L636.3,299z"/>
			<path fill="#F8D9BD" d="M690.3,323.6c-0.7-1.5-1.9-2.6-3.4-3.1l-3.7-1.4c-0.7-0.2-1.4-0.4-2.1-0.4c-2.5,0-4.8,1.6-5.6,3.9
				l-2.1,5.7l15.1,5l1.9-5.2C691,326.7,691,325.1,690.3,323.6z"/>
			<path fill="#37474F" d="M695.2,329.9c1-2.8,0.9-5.7-0.3-8.4c-1.2-2.7-3.4-4.7-6.2-5.7l-3.7-1.4c-1.2-0.5-2.5-0.7-3.8-0.7
				c-4.6,0-8.7,2.9-10.3,7.2l-3.9,10.6l24.7,8.1L695.2,329.9z M673.4,328.4l2.1-5.7c0.9-2.3,3.1-3.9,5.6-3.9c0.7,0,1.4,0.1,2.1,0.4
				l3.7,1.4c1.5,0.6,2.7,1.7,3.4,3.1s0.7,3.1,0.2,4.6l-1.9,5.2L673.4,328.4z"/>
			<path fill="#F8D9BD" d="M728.3,350.3c-0.7-1.5-1.9-2.6-3.4-3.1l-3.7-1.4c-0.7-0.2-1.4-0.4-2.1-0.4c-2.5,0-4.8,1.6-5.6,3.9
				l-1.9,5.2l15.1,5l1.7-4.7C729.1,353.4,729,351.8,728.3,350.3z"/>
			<path fill="#37474F" d="M733.2,356.6c1-2.8,0.9-5.7-0.3-8.4c-1.2-2.7-3.4-4.7-6.2-5.7l-3.7-1.4c-1.2-0.5-2.5-0.7-3.8-0.7
				c-4.6,0-8.7,2.9-10.3,7.2l-3.7,10.1l24.7,8.1L733.2,356.6z M711.6,354.6l1.9-5.2c0.9-2.3,3.1-3.9,5.6-3.9c0.7,0,1.4,0.1,2.1,0.4
				l3.7,1.4c1.5,0.6,2.7,1.7,3.4,3.1s0.7,3.1,0.2,4.6l-1.7,4.7L711.6,354.6z"/>
			<path fill="#F8D9BD" d="M677.1,248.8l-15.9-6.2l-7.9,14.1c1.7,0.4,3.5,0.6,5.3,0.6C665.8,257.3,672.5,254.2,677.1,248.8z"/>
		</g>
		<g>
			<rect x="67.4" y="407" fill="#F8C48E" width="21.9" height="70.5"/>
			<path fill="#36A6DD" d="M67.4,397h21.9v-27.8c0-2.8,2.2-5,5-5s5,2.2,5,5V402v75.5h106.9v-97.3c0-2.8,2.2-5,5-5l21.3,0v-15.5
				c0-10.4,4.4-19.7,11.3-26.3h-68.3v1.9c0,13.4-10.9,24.3-24.3,24.3s-24.3-10.9-24.3-24.3v-1.9H94.3c-14.8,0-26.9,12.1-26.9,26.9
				V397z M104.3,377.7h35v39.7h-35V377.7z"/>
			<path fill="#37474F" d="M211.2,487.5c2.8,0,5-2.2,5-5v-97.3l16.3,0v97.3c0,2.8,2.2,5,5,5h174.3c2.8,0,5-2.2,5-5V360.3
				c0-20.3-16.6-36.9-36.9-36.9h-32.5V320c0-1.1-0.1-2.2-0.2-3.3c14.8-6.8,26.2-19.8,31-35.6h6.8c11.6,0,21.1-9.5,21.1-21.1
				c0-11.6-9.5-21.1-21.1-21.1h-4.3v-17.5c0-31.7-25.8-57.5-57.5-57.5s-57.5,25.8-57.5,57.5v17.5h-4.3c-11.6,0-21.1,9.5-21.1,21.1
				c0,11.6,9.5,21.1,21.1,21.1h6.8c4.8,15.8,16.2,28.7,31,35.6c-0.2,1.1-0.2,2.2-0.2,3.3v3.4h-14h-15.9h-93.3V320
				c0-1.1-0.1-2.2-0.2-3.3c14.8-6.8,26.2-19.8,31-35.6h6.8c11.6,0,21.1-9.5,21.1-21.1c0-11.6-9.5-21.1-21.1-21.1h-4.3v-2.1v-47.5
				c0-14.2-11.5-25.7-25.7-25.7h-44.1c-24.9,0-45.2,20.3-45.2,45.2v28v2.1h-4.3c-11.6,0-21.1,9.5-21.1,21.1
				c0,11.6,9.5,21.1,21.1,21.1h6.8c4.8,15.8,16.2,28.7,31,35.6c-0.2,1.1-0.2,2.2-0.2,3.3v3.4H94.3c-20.3,0-36.9,16.6-36.9,36.9V402
				v80.5c0,2.8,2.2,5,5,5h31.9H211.2z M94.3,333.4h32.5v1.9c0,13.4,10.9,24.3,24.3,24.3s24.3-10.9,24.3-24.3v-1.9h68.3
				c-7,6.6-11.3,16-11.3,26.3v15.5l-21.3,0c-2.8,0-5,2.2-5,5v97.3H99.3V402v-32.8c0-2.8-2.2-5-5-5s-5,2.2-5,5V397H67.4v-36.7
				C67.4,345.5,79.5,333.4,94.3,333.4z M78.3,260c0-6.1,5-11.1,11.1-11.1h4.3v10.7c-2.6-2-5.5-3.6-8.7-4.5c-1.3-0.4-2.7,0.4-3.1,1.7
				c-0.4,1.3,0.4,2.7,1.7,3.1c3.9,1.2,7.5,3.5,10.1,6.6v4.6h-4.3C83.2,271,78.3,266.1,78.3,260z M138.9,173.5H183
				c8.7,0,15.7,7,15.7,15.7v47.5v1.6c-11.2-2.3-19.6-12.2-19.6-24.1v-9c0-2.8-2.2-5-5-5s-5,2.2-5,5c0,18.6-15.1,33.7-33.7,33.7
				h-31.8v-2.1v-28C103.7,189.3,119.5,173.5,138.9,173.5z M224.1,260c0,6.1-5,11.1-11.1,11.1h-4.3v-4.6c2.6-3.1,6.2-5.4,10.1-6.6
				c1.3-0.4,2.1-1.8,1.7-3.1c-0.4-1.3-1.8-2.1-3.1-1.7c-3.1,0.9-6.1,2.5-8.7,4.5v-10.7h4.3C219.2,248.9,224.1,253.9,224.1,260z
				 M103.7,248.9h31.8c15.4,0,29-8.1,36.8-20.2c4.8,10.5,14.7,18.1,26.5,19.8v15.9c0,26.2-21.3,47.5-47.5,47.5s-47.5-21.3-47.5-47.5
				V248.9z M151.2,321.9c4.9,0,9.7-0.6,14.3-1.8v15.1c0,7.9-6.4,14.3-14.3,14.3s-14.3-6.4-14.3-14.3v-15.1
				C141.5,321.3,146.3,321.9,151.2,321.9z M298.8,333.4v3.9l21.8,21.8v118.4h-45V369.2c0-2.8-2.2-5-5-5s-5,2.2-5,5v108.3h-23V359.7
				c0-14.5,11.8-26.3,26.3-26.3h6H298.8z M261.3,271c-6.1,0-11.1-5-11.1-11.1s5-11.1,11.1-11.1h4.3v10.7c-2.6-2-5.5-3.6-8.7-4.5
				c-1.3-0.4-2.7,0.4-3.1,1.7c-0.4,1.3,0.4,2.7,1.7,3.1c3.9,1.2,7.5,3.5,10.1,6.6v4.6H261.3z M370.6,221.4v8.1h-0.1
				c-2.3,0-4.1-1.8-4.1-4.1v-2.9c0-8.1-6.6-14.7-14.7-14.7h-28.7h-28.7c-8.1,0-14.7,6.6-14.7,14.7v2.9c0,2.3-1.8,4.1-4.1,4.1h-0.1
				v-8.1c0-26.2,21.3-47.5,47.5-47.5S370.6,195.2,370.6,221.4z M396,260c0,6.1-5,11.1-11.1,11.1h-4.3v-4.6c2.6-3.1,6.2-5.4,10.1-6.6
				c1.3-0.4,2.1-1.8,1.7-3.1c-0.4-1.3-1.8-2.1-3.1-1.7c-3.1,0.9-6.1,2.5-8.7,4.5v-10.7h4.3C391.1,248.9,396,253.9,396,260z
				 M275.6,239.5L275.6,239.5c7.8,0,14.2-6.3,14.2-14.1v-2.9c0-2.6,2.1-4.7,4.7-4.7h28.7h28.7c2.6,0,4.7,2.1,4.7,4.7v2.9
				c0,7.8,6.3,14.1,14.1,14.1h0.1v24.9c0,26.2-21.3,47.5-47.5,47.5s-47.5-21.3-47.5-47.5V239.5z M323.1,321.9
				c4.9,0,9.7-0.6,14.3-1.8v13.1l-14.3,14.3l-14.3-14.3v-13.1C313.4,321.3,318.2,321.9,323.1,321.9z M406.9,360.3v117.2H385V369.2
				c0-2.8-2.2-5-5-5s-5,2.2-5,5v108.3h-49.4V359.2l21.8-21.8v-3.9H380C394.8,333.4,406.9,345.5,406.9,360.3z M67.4,407h21.9v70.5
				H67.4V407z"/>
			<path fill="#F8C48E" d="M136.9,335.3c0,7.9,6.4,14.3,14.3,14.3s14.3-6.4,14.3-14.3v-15.1c-4.6,1.2-9.4,1.8-14.3,1.8
				s-9.7-0.6-14.3-1.8V335.3z"/>
			<path fill="#F8C48E" d="M151.2,311.9c26.2,0,47.5-21.3,47.5-47.5v-15.9c-11.8-1.7-21.7-9.4-26.5-19.8
				c-7.8,12.1-21.4,20.2-36.8,20.2h-31.8v15.5C103.7,290.6,125,311.9,151.2,311.9z M168.1,257.5c1.8-2.3,4.5-3.7,7.4-3.9
				c2.8-0.2,5.8,0.9,7.8,3c1,1,1,2.6,0,3.5c-1,1-2.6,1-3.5,0c-1-1-2.5-1.6-4-1.5s-2.9,0.8-3.8,2c-0.5,0.6-1.2,1-2,1
				c-0.5,0-1.1-0.2-1.5-0.5C167.5,260.2,167.3,258.6,168.1,257.5z M149.3,271.8h3.5c1.4,0,2.5,1.1,2.5,2.5s-1.1,2.5-2.5,2.5h-3.5
				c-1.4,0-2.5-1.1-2.5-2.5S147.9,271.8,149.3,271.8z M149.9,287.4c5.8,0.2,11.9-1.6,16.5-5.2c1.1-0.8,2.7-0.6,3.5,0.5
				c0.8,1.1,0.6,2.7-0.5,3.5c-5.2,4-11.9,6.2-18.5,6.2c-0.4,0-0.8,0-1.2,0c-7.1-0.3-13.9-3.1-19.2-7.9c-1-0.9-1.1-2.5-0.2-3.5
				c0.9-1,2.5-1.1,3.5-0.2C138.2,284.8,144,287.1,149.9,287.4z M119,256.6c2-2,5-3.1,7.8-3c2.9,0.2,5.6,1.6,7.4,3.9
				c0.9,1.1,0.7,2.7-0.4,3.5c-0.5,0.4-1,0.5-1.5,0.5c-0.7,0-1.5-0.3-2-1c-0.9-1.1-2.3-1.9-3.8-2c-1.5-0.1-2.9,0.5-4,1.5
				c-1,1-2.6,1-3.5,0C118.1,259.1,118.1,257.5,119,256.6z"/>
			<circle fill="#BB3B26" cx="336.1" cy="460.4" r="2"/>
			<circle fill="#BB3B26" cx="336.1" cy="429.5" r="2"/>
			<circle fill="#BB3B26" cx="336.1" cy="398.6" r="2"/>
			<circle fill="#BB3B26" cx="336.1" cy="367.7" r="2"/>
			<path fill="#F58A68" d="M347.4,337.4l-21.8,21.8v118.4H375V369.2c0-2.8,2.2-5,5-5s5,2.2,5,5v108.3h21.9V360.3
				c0-14.8-12.1-26.9-26.9-26.9h-32.5V337.4z M336.1,467.4c-3.9,0-7-3.1-7-7s3.1-7,7-7s7,3.1,7,7S340,467.4,336.1,467.4z
				 M336.1,436.5c-3.9,0-7-3.1-7-7s3.1-7,7-7s7,3.1,7,7S340,436.5,336.1,436.5z M336.1,405.6c-3.9,0-7-3.1-7-7s3.1-7,7-7s7,3.1,7,7
				S340,405.6,336.1,405.6z M336.1,374.7c-3.9,0-7-3.1-7-7s3.1-7,7-7s7,3.1,7,7S340,374.7,336.1,374.7z"/>
			<path fill="#F58A68" d="M274.8,333.4h-6c-14.5,0-26.3,11.8-26.3,26.3v117.8h23V369.2c0-2.8,2.2-5,5-5s5,2.2,5,5v108.3h45V359.2
				l-21.8-21.8v-3.9H274.8z"/>
			<path fill="#F8C48E" d="M308.8,333.2l14.3,14.3l14.3-14.3v-13.1c-4.6,1.2-9.4,1.8-14.3,1.8s-9.7-0.6-14.3-1.8V333.2z"/>
			<path fill="#FBB040" d="M275.6,221.4v8.1h0.1c2.3,0,4.1-1.8,4.1-4.1v-2.9c0-8.1,6.6-14.7,14.7-14.7h28.7h28.7
				c8.1,0,14.7,6.6,14.7,14.7v2.9c0,2.3,1.8,4.1,4.1,4.1h0.1v-8.1c0-26.2-21.3-47.5-47.5-47.5S275.6,195.2,275.6,221.4z"/>
			<path fill="#F8C48E" d="M323.1,311.9c26.2,0,47.5-21.3,47.5-47.5v-24.9h-0.1c-7.8,0-14.1-6.3-14.1-14.1v-2.9
				c0-2.6-2.1-4.7-4.7-4.7h-28.7h-28.7c-2.6,0-4.7,2.1-4.7,4.7v2.9c0,7.8-6.3,14.1-14.1,14.1h-0.1v24.9
				C275.6,290.6,296.9,311.9,323.1,311.9z M345.2,279.1c0,12.2-9.9,22.1-22.1,22.1s-22.1-9.9-22.1-22.1v-3.9h44.2V279.1z
				 M338.2,245.6c6.6-5.4,15.9-7.2,24-4.7c1.3,0.4,2.1,1.8,1.7,3.1c-0.4,1.3-1.8,2.1-3.1,1.7c-6.5-2-14.1-0.5-19.4,3.8
				c-0.5,0.4-1,0.6-1.6,0.6c-0.7,0-1.5-0.3-1.9-0.9C336.9,248,337.1,246.4,338.2,245.6z M323.1,251.8c7.1,0,12.5,3.5,12.5,8.2
				s-5.4,8.2-12.5,8.2s-12.5-3.5-12.5-8.2S316,251.8,323.1,251.8z M282.4,244c-0.4-1.3,0.3-2.7,1.7-3.1c8.2-2.5,17.4-0.7,24,4.7
				c1.1,0.9,1.2,2.4,0.4,3.5c-0.5,0.6-1.2,0.9-1.9,0.9c-0.6,0-1.1-0.2-1.6-0.6c-5.3-4.3-12.9-5.8-19.4-3.8
				C284.2,246.1,282.8,245.3,282.4,244z"/>
			<path fill="#726658" d="M103.7,236.8v2.1h31.8c18.6,0,33.7-15.1,33.7-33.7c0-2.8,2.2-5,5-5s5,2.2,5,5v9
				c0,11.9,8.4,21.8,19.6,24.1v-1.6v-47.5c0-8.7-7-15.7-15.7-15.7h-44.1c-19.4,0-35.2,15.8-35.2,35.2V236.8z"/>
			<path fill="#F8C48E" d="M93.7,266.5c-2.6-3.1-6.2-5.4-10.1-6.6c-1.3-0.4-2.1-1.8-1.7-3.1c0.4-1.3,1.8-2.1,3.1-1.7
				c3.1,0.9,6.1,2.5,8.7,4.5v-10.7h-4.3c-6.1,0-11.1,5-11.1,11.1s5,11.1,11.1,11.1h4.3V266.5z"/>
			<path fill="#F8C48E" d="M208.7,248.9v10.7c2.6-2,5.5-3.6,8.7-4.5c1.3-0.4,2.7,0.4,3.1,1.7c0.4,1.3-0.4,2.7-1.7,3.1
				c-3.9,1.2-7.5,3.5-10.1,6.6v4.6h4.3c6.1,0,11.1-5,11.1-11.1s-5-11.1-11.1-11.1H208.7z"/>
			<path fill="#F8C48E" d="M255.5,259.9c-1.3-0.4-2.1-1.8-1.7-3.1c0.4-1.3,1.8-2.1,3.1-1.7c3.1,0.9,6.1,2.5,8.7,4.5v-10.7h-4.3
				c-6.1,0-11.1,5-11.1,11.1s5,11.1,11.1,11.1h4.3v-4.6C262.9,263.4,259.4,261,255.5,259.9z"/>
			<path fill="#F8C48E" d="M380.6,259.6c2.6-2,5.5-3.6,8.7-4.5c1.3-0.4,2.7,0.4,3.1,1.7c0.4,1.3-0.4,2.7-1.7,3.1
				c-3.9,1.2-7.5,3.5-10.1,6.6v4.6h4.3c6.1,0,11.1-5,11.1-11.1s-5-11.1-11.1-11.1h-4.3V259.6z"/>
			<path fill="#37474F" d="M122.6,260.1c1-1,2.5-1.6,4-1.5c1.5,0.1,2.9,0.8,3.8,2c0.5,0.6,1.2,1,2,1c0.5,0,1.1-0.2,1.5-0.5
				c1.1-0.9,1.3-2.4,0.4-3.5c-1.8-2.3-4.5-3.7-7.4-3.9c-2.9-0.2-5.8,0.9-7.8,3c-1,1-1,2.6,0,3.5C120,261.1,121.6,261.1,122.6,260.1z
				"/>
			<path fill="#37474F" d="M168.6,261c0.5,0.4,1,0.5,1.5,0.5c0.7,0,1.5-0.3,2-1c0.9-1.1,2.3-1.9,3.8-2s2.9,0.5,4,1.5
				c1,1,2.6,1,3.5,0c1-1,1-2.6,0-3.5c-2-2-5-3.1-7.8-3c-2.9,0.2-5.6,1.6-7.4,3.9C167.3,258.6,167.5,260.2,168.6,261z"/>
			<path fill="#37474F" d="M149.3,276.8h3.5c1.4,0,2.5-1.1,2.5-2.5s-1.1-2.5-2.5-2.5h-3.5c-1.4,0-2.5,1.1-2.5,2.5
				S147.9,276.8,149.3,276.8z"/>
			<path fill="#37474F" d="M130.3,281c-0.9,1-0.9,2.6,0.2,3.5c5.3,4.8,12.1,7.6,19.2,7.9c0.4,0,0.8,0,1.2,0c6.6,0,13.3-2.2,18.5-6.2
				c1.1-0.8,1.3-2.4,0.5-3.5c-0.8-1.1-2.4-1.3-3.5-0.5c-4.6,3.6-10.7,5.4-16.5,5.2c-5.8-0.2-11.7-2.6-16-6.6
				C132.8,279.9,131.2,280,130.3,281z"/>
			<rect x="109.3" y="382.7" fill="#86D3F4" width="25" height="29.7"/>
			<path fill="#37474F" d="M139.3,377.7h-35v39.7h35V377.7z M134.3,412.4h-25v-29.7h25V412.4z"/>
			<path fill="#F8C48E" d="M323.1,263.3c4.5,0,7.5-1.9,7.5-3.2s-3-3.2-7.5-3.2s-7.5,1.9-7.5,3.2S318.6,263.3,323.1,263.3z"/>
			<path fill="#37474F" d="M323.1,268.3c7.1,0,12.5-3.5,12.5-8.2s-5.4-8.2-12.5-8.2s-12.5,3.5-12.5,8.2S316,268.3,323.1,268.3z
				 M323.1,256.8c4.5,0,7.5,1.9,7.5,3.2s-3,3.2-7.5,3.2s-7.5-1.9-7.5-3.2S318.6,256.8,323.1,256.8z"/>
			<path fill="#37474F" d="M304.9,249.4c0.5,0.4,1,0.6,1.6,0.6c0.7,0,1.5-0.3,1.9-0.9c0.9-1.1,0.7-2.6-0.4-3.5
				c-6.6-5.4-15.8-7.2-24-4.7c-1.3,0.4-2.1,1.8-1.7,3.1c0.4,1.3,1.8,2.1,3.1,1.7C292,243.7,299.6,245.2,304.9,249.4z"/>
			<path fill="#37474F" d="M339.7,250c0.6,0,1.1-0.2,1.6-0.6c5.3-4.3,12.9-5.8,19.4-3.8c1.3,0.4,2.7-0.3,3.1-1.7
				c0.4-1.3-0.3-2.7-1.7-3.1c-8.2-2.5-17.4-0.7-24,4.7c-1.1,0.9-1.2,2.4-0.4,3.5C338.3,249.7,339,250,339.7,250z"/>
			<path fill="#FFFFFF" d="M323.1,296.2c9.1,0,16.5-7.1,17-16h-34.1C306.6,289.1,314.1,296.2,323.1,296.2z"/>
			<path fill="#37474F" d="M301,279.1c0,12.2,9.9,22.1,22.1,22.1s22.1-9.9,22.1-22.1v-3.9H301V279.1z M340.2,280.2
				c-0.6,8.9-8,16-17,16s-16.5-7.1-17-16H340.2z"/>
			<path fill="#37474F" d="M336.1,360.7c-3.9,0-7,3.1-7,7s3.1,7,7,7s7-3.1,7-7S340,360.7,336.1,360.7z M336.1,369.7
				c-1.1,0-2-0.9-2-2s0.9-2,2-2s2,0.9,2,2S337.2,369.7,336.1,369.7z"/>
			<path fill="#37474F" d="M336.1,391.6c-3.9,0-7,3.1-7,7s3.1,7,7,7s7-3.1,7-7S340,391.6,336.1,391.6z M336.1,400.6
				c-1.1,0-2-0.9-2-2s0.9-2,2-2s2,0.9,2,2S337.2,400.6,336.1,400.6z"/>
			<path fill="#37474F" d="M336.1,422.5c-3.9,0-7,3.1-7,7s3.1,7,7,7s7-3.1,7-7S340,422.5,336.1,422.5z M336.1,431.5
				c-1.1,0-2-0.9-2-2s0.9-2,2-2s2,0.9,2,2S337.2,431.5,336.1,431.5z"/>
			<path fill="#37474F" d="M336.1,453.4c-3.9,0-7,3.1-7,7s3.1,7,7,7s7-3.1,7-7S340,453.4,336.1,453.4z M336.1,462.4
				c-1.1,0-2-0.9-2-2s0.9-2,2-2s2,0.9,2,2S337.2,462.4,336.1,462.4z"/>
		</g>
		<g>
			<path fill="none" d="M1096.1,468.8v7.9c0,6.9,5.7,12.6,12.6,12.6c6.9,0,12.6-5.7,12.6-12.6v-13.5h-23.9c-0.8,0-1.7-0.1-2.5-0.2
				C1095.6,464.7,1096.1,466.7,1096.1,468.8z"/>
			<path fill="#55707A" d="M1141.3,463.2h-5h-5v13.5c0,12.5-10.1,22.6-22.6,22.6c-12.5,0-22.6-10.1-22.6-22.6v-7.9c0-2.8-2.2-5-5-5
				s-5,2.2-5,5v7.9c0,18,14.6,32.6,32.6,32.6s32.6-14.6,32.6-32.6V463.2z"/>
			<path fill="#55707A" d="M1248.1,179.4c-21-10.8-43.1-18.5-65.9-22.8c13.4,7.7,27.1,19,40.1,33.3c21,23.2,35.5,49.3,38.4,68.9
				c17.2-10.1,38.2-15.6,59.8-15.6c2,0,4,0,6.1,0.1C1305.1,216.8,1278.2,194.9,1248.1,179.4z"/>
			<path fill="#55707A" d="M950.3,243c21.6,0,42.6,5.5,59.8,15.6c3-19.6,17.4-45.7,38.4-68.9c13-14.3,26.6-25.6,40.1-33.3
				c-22.8,4.4-44.9,12-65.9,22.8c-30.1,15.5-57,37.4-78.4,63.8C946.2,243.1,948.3,243,950.3,243z"/>
			<path fill="#55707A" d="M1218.5,193.1c-17.4-19.2-36.5-32.9-54.1-39.4c-8.8-1-17.7-1.6-26.6-1.6v106.2
				c17.1-9.9,37.9-15.3,59.2-15.3c21,0,41.5,5.2,58.4,14.8C1252.1,239.5,1238.1,214.7,1218.5,193.1z"/>
			<path fill="#55707A" d="M1132.9,258.3V152.1c-9,0.1-17.8,0.6-26.6,1.6c-17.6,6.5-36.7,20.2-54.1,39.4
				c-19.6,21.6-33.6,46.4-36.9,64.7c16.9-9.6,37.4-14.8,58.4-14.8C1095,243,1115.8,248.4,1132.9,258.3z"/>
			<path fill="#37474F" d="M1341.3,245.9c-23.3-31.5-53.9-57.5-88.6-75.5c-35-18.1-72.8-27.6-112.3-28.3v-5.3c0-2.8-2.2-5-5-5
				s-5,2.2-5,5v5.3c-39.5,0.7-77.3,10.2-112.3,28.3c-34.8,18-65.5,44.2-88.9,75.8c-1.2,1.6-1.3,3.8-0.3,5.5c1,1.7,3,2.7,5,2.4
				c5.5-0.8,11-1.2,16.4-1.2c21.6,0,42.6,6,58.9,16.9c1.7,1.1,3.9,1.1,5.5,0c16.4-10.9,37.3-16.9,58.9-16.9
				c20.7,0,40.7,5.5,56.7,15.5v90c-2.3,0.3-4.2,2.2-4.4,4.6l-0.2,3h-28.4c-8.8,0-15.9,7.1-15.9,15.9c0,4.2,1.7,8,4.3,10.9
				c-2.7,2.8-4.3,6.7-4.3,10.9c0,4.2,1.7,8,4.3,10.9c-2.7,2.8-4.3,6.7-4.3,10.9s1.7,8,4.3,10.9c-2.7,2.8-4.3,6.7-4.3,10.9
				c0,2.4,0.5,4.6,1.5,6.6c-0.6-0.1-1.2-0.1-1.9-0.1c-8.3,0-15,6.7-15,15v7.9c0,23.5,19.1,42.6,42.6,42.6
				c23.5,0,42.6-19.1,42.6-42.6v-13.5h28.2c1,0,2-0.3,2.8-0.9l14.7-10h34.5c2.8,0,5-2.2,5-5V389c0-2.8-2.2-5-5-5h-31.2l-21-23.9
				c-0.9-1.1-2.3-1.7-3.8-1.7h-12.3h-22.8v-89.9c16-10,36-15.5,56.7-15.5c21.6,0,42.6,6,58.9,16.9c0.8,0.6,1.8,0.8,2.8,0.8
				s1.9-0.3,2.8-0.8c16.4-10.9,37.3-16.9,58.9-16.9c5.4,0,10.9,0.4,16.4,1.2c0.3,0,0.5,0.1,0.8,0c2.7,0,5-2.2,5-5
				C1342.6,248,1342.1,246.8,1341.3,245.9z M1320.4,243c-21.6,0-42.6,5.5-59.8,15.6c-3-19.6-17.4-45.7-38.4-68.9
				c-13-14.3-26.6-25.6-40.1-33.3c22.8,4.4,44.9,12,65.9,22.8c30.1,15.5,57,37.4,78.4,63.8C1324.5,243.1,1322.5,243,1320.4,243z
				 M1022.6,179.4c21-10.8,43.1-18.5,65.9-22.8c-13.4,7.7-27.1,19-40.1,33.3c-21,23.2-35.5,49.3-38.4,68.9
				c-17.2-10.1-38.2-15.6-59.8-15.6c-2,0-4,0-6.1,0.1C965.6,216.8,992.5,194.9,1022.6,179.4z M1052.2,193.1
				c17.4-19.2,36.5-32.9,54.1-39.4c8.8-1,17.6-1.6,26.6-1.6v106.2c-17.1-9.9-37.9-15.3-59.2-15.3c-21,0-41.5,5.2-58.4,14.8
				C1018.6,239.5,1032.6,214.7,1052.2,193.1z M1137.9,258.3V152.1c9,0.1,17.8,0.6,26.6,1.6c17.6,6.5,36.7,20.2,54.1,39.4
				c19.6,21.6,33.6,46.4,36.9,64.7c-16.9-9.6-37.4-14.8-58.4-14.8C1175.7,243,1154.9,248.4,1137.9,258.3z M1163.1,368.4h10.1
				l21,23.9c0.9,1.1,2.3,1.7,3.8,1.7h28.5v48.3h-31c-1,0-2,0.3-2.8,0.9l-14.7,10H1151c0.7-1.8,1.1-3.8,1.1-5.9
				c0-3.5-1.2-6.7-3.1-9.4c3.6-2.9,6-7.4,6-12.4c0-3.4-1.1-6.6-2.9-9.1c3.8-2.9,6.3-7.5,6.3-12.6c0-1.5-0.2-2.9-0.6-4.2
				c0.8-1.9,1.4-3.8,1.9-5.9l2.3-10.6c0.6-2.7-1.1-5.4-3.8-5.9c-2.7-0.6-5.4,1.1-5.9,3.8l-2.3,10.6c-1.9,8.7-8.7,15.4-17.1,17.5
				l2.8-40.6H1163.1z M1108.7,509.2c-18,0-32.6-14.6-32.6-32.6v-7.9c0-2.8,2.2-5,5-5s5,2.2,5,5v7.9c0,12.5,10.1,22.6,22.6,22.6
				c12.5,0,22.6-10.1,22.6-22.6v-13.5h5h5v13.5C1141.3,494.6,1126.6,509.2,1108.7,509.2z M1091.5,381.9c0-3.2,2.6-5.9,5.9-5.9h27.7
				l-0.8,11.8h-26.9C1094.1,387.8,1091.5,385.2,1091.5,381.9z M1097.4,441.4h38.9c3.2,0,5.9,2.6,5.9,5.9c0,3.2-2.6,5.9-5.9,5.9h-6.9
				h-32c-3.2,0-5.9-2.6-5.9-5.9C1091.5,444,1094.1,441.4,1097.4,441.4z M1091.5,425.5c0-3.2,2.6-5.9,5.9-5.9h41.8
				c3.2,0,5.9,2.6,5.9,5.9s-2.6,5.9-5.9,5.9h-2.9h-38.9C1094.1,431.4,1091.5,428.7,1091.5,425.5z M1091.5,403.7
				c0-3.2,2.6-5.9,5.9-5.9h26.2l-0.8,11.8h-25.4C1094.1,409.6,1091.5,407,1091.5,403.7z M1121.3,463.2v13.5
				c0,6.9-5.7,12.6-12.6,12.6c-6.9,0-12.6-5.7-12.6-12.6v-7.9c0-2.1-0.4-4-1.2-5.8c0.8,0.1,1.6,0.2,2.5,0.2H1121.3z"/>
			<path fill="#F8C48E" d="M1124.3,387.8l0.8-11.8h-27.7c-3.2,0-5.9,2.6-5.9,5.9c0,3.2,2.6,5.9,5.9,5.9H1124.3z"/>
			<path fill="#F8C48E" d="M1122.8,409.6l0.8-11.8h-26.2c-3.2,0-5.9,2.6-5.9,5.9c0,3.2,2.6,5.9,5.9,5.9H1122.8z"/>
			<path fill="#F8C48E" d="M1136.3,431.4h2.9c3.2,0,5.9-2.6,5.9-5.9s-2.6-5.9-5.9-5.9h-41.8c-3.2,0-5.9,2.6-5.9,5.9s2.6,5.9,5.9,5.9
				H1136.3z"/>
			<path fill="#F8C48E" d="M1097.4,453.2h32h6.9c3.2,0,5.9-2.6,5.9-5.9c0-3.2-2.6-5.9-5.9-5.9h-38.9c-3.2,0-5.9,2.6-5.9,5.9
				C1091.5,450.5,1094.1,453.2,1097.4,453.2z"/>
			<path fill="#F8C48E" d="M1135.7,368.4l-2.8,40.6c8.4-2.1,15.2-8.8,17.1-17.5l2.3-10.6c0.6-2.7,3.2-4.4,5.9-3.8
				c2.7,0.6,4.4,3.2,3.8,5.9l-2.3,10.6c-0.4,2-1.1,4-1.9,5.9c0.4,1.3,0.6,2.8,0.6,4.2c0,5.2-2.5,9.7-6.3,12.6
				c1.8,2.6,2.9,5.7,2.9,9.1c0,5-2.3,9.5-6,12.4c1.9,2.6,3.1,5.9,3.1,9.4c0,2.1-0.4,4.1-1.1,5.9h26.9l14.7-10
				c0.8-0.6,1.8-0.9,2.8-0.9h31V394H1198c-1.4,0-2.8-0.6-3.8-1.7l-21-23.9h-10.1H1135.7z"/>
		</g>
		<g>
			<path fill="none" d="M651.9,724.9c0.7,0.3,1.4,0.7,2,1.2l73.8,52.5c-3.8-4.7-6.6-10.1-8.4-15.8c-0.7-0.3-1.4-0.7-2-1.2
				l-73.8-52.5C647.4,713.8,650.2,719.2,651.9,724.9z"/>
			<path fill="#F8C48E" d="M620.5,743c-1.3,0-2.5,0.6-3.3,1.6l-0.2,0.3c-0.6,0.8-0.8,1.8-0.7,2.8c0.2,1,0.7,1.9,1.6,2.5l9.9,7
				c-0.3-0.6-0.5-1.3-0.5-2l-0.3-6.2c0-0.9-0.1-1.7-0.2-2.6l-3.9-2.8C622.2,743.3,621.3,743,620.5,743z"/>
			<path fill="#F8C48E" d="M771.1,837.3l-10.6-7.6c-1.2-0.9-2-2.2-2.1-3.7l-2.8-41.7c-0.3-4.4-2.2-8.6-5.3-11.8l-2.5-2.6
				c-3.9-4-7.1-8.7-9.3-13.8c-0.2,0.4-0.5,0.9-0.8,1.3l-0.8,1.1c-1.7,2.3-4,4-6.7,4.9c1.6,3.8,3.9,7.4,6.8,10.6l4.2,4.6
				c0.7,0.7,1.1,1.6,1.2,2.6l1.1,6.9c0.2,1.3-0.1,2.7-0.9,3.7c-0.8,1.1-2,1.8-3.3,2l-4.1,0.7c-1.3,0.2-2.6-0.1-3.7-0.9l-77.5-55.2
				c0,3.5-0.3,7-1.1,10.5l35.9,25.6c1.5,1,2.4,2.6,2.7,4.3c0.3,1.8-0.1,3.5-1.2,5c-1.2,1.7-3.3,2.7-5.4,2.7c-1.4,0-2.7-0.4-3.9-1.2
				l-35.8-25.5c-2.2,1.3-4.8,2-7.5,2c-1.7,0-3.3-0.3-4.8-0.8l39.9,28.4c1.7,1.2,2.8,2.9,3.1,4.9c0.3,2-0.2,4-1.4,5.7
				c-1.4,1.9-3.7,3.1-6.1,3.1c-1.6,0-3.1-0.5-4.4-1.4l-50.8-36.1c-0.7-0.5-1.5-0.8-2.4-0.8c-1.3,0-2.5,0.6-3.3,1.6
				c-0.6,0.8-0.9,1.8-0.7,2.8c0.2,1,0.7,1.9,1.6,2.5l56.6,40.3c1.5,1.1,2.5,2.6,2.8,4.4c0.3,1.8-0.1,3.6-1.2,5.1
				c-1.3,1.7-3.3,2.8-5.5,2.8c-1.4,0-2.8-0.4-4-1.3L616,793.8c-0.7-0.5-1.5-0.8-2.4-0.8c-1.3,0-2.5,0.6-3.3,1.6l-0.6,0.8
				c-0.6,0.8-0.9,1.8-0.7,2.8c0.2,1,0.7,1.9,1.6,2.5l90.7,64.6c6.6,4.7,14.3,7.2,22.4,7.2c1,0,2,0.3,2.9,0.9l11.7,8.3L771.1,837.3z
				 M702.6,803.3l-12.6,17.8c-0.5,0.7-1.3,1.1-2,1.1c-0.5,0-1-0.2-1.4-0.5c-1.1-0.8-1.4-2.4-0.6-3.5l12.6-17.8
				c0.8-1.1,2.4-1.4,3.5-0.6C703.1,800.6,703.4,802.2,702.6,803.3z M703.2,784.2c-14.4,15.2-25.9,32.7-34,51.9
				c-0.4,1-1.3,1.5-2.3,1.5c-0.3,0-0.7-0.1-1-0.2c-1.3-0.5-1.9-2-1.3-3.3c8.4-19.8,20.1-37.7,35-53.4c0.9-1,2.5-1,3.5-0.1
				C704.1,781.6,704.1,783.2,703.2,784.2z M720.6,828.6c-3.6-9.8-3.3-21,0.8-30.6c0.5-1.3,2-1.8,3.3-1.3c1.3,0.6,1.8,2,1.3,3.3
				c-3.7,8.4-3.9,18.2-0.7,26.8c3.2,8.6,9.8,16,18.1,20.1c1.2,0.6,1.7,2.1,1.1,3.3c-0.4,0.9-1.3,1.4-2.2,1.4c-0.4,0-0.8-0.1-1.1-0.3
				C731.8,846.7,724.3,838.4,720.6,828.6z"/>
			<path fill="#FFD543" d="M786,877.4l19-26l-20.9-14.9L742.7,893l20.9,14.9L786,877.4z M779.4,850.8c1.5-2,3.9-3.2,6.4-3.2
				c1.7,0,3.3,0.5,4.6,1.5c1.7,1.2,2.9,3,3.2,5.1c0.3,2.1-0.2,4.1-1.4,5.8c-1.5,2-3.9,3.2-6.4,3.2c-1.7,0-3.3-0.5-4.6-1.5
				c-1.7-1.2-2.9-3-3.2-5.1C777.7,854.5,778.2,852.5,779.4,850.8z"/>
			<polygon fill="#FEC016" points="868.3,896.5 813.2,857.3 771.8,913.7 826.9,953 			"/>
			<path fill="#37474F" d="M878.2,891.3l-63.3-45.1l-29.1-20.7c-2.2-1.6-5.3-1.1-6.9,1.1l-1.9,2.6l-8.8-6.3l-2.7-39.3
				c-0.5-6.8-3.3-13.2-8.1-18.1l-2.5-2.6c-2.4-2.5-4.5-5.3-6.1-8.4c0.7,0.1,1.3,0.1,2,0.1c4.5,0,8.7-2.1,11.3-5.7l0.2-0.3
				c2.2-3,3.1-6.7,2.5-10.3c-0.3-2.1-1.1-4.1-2.3-5.7c3.6-0.6,6.9-2.6,9.1-5.5c2.2-3,3.1-6.7,2.5-10.3c-0.6-3.7-2.6-6.9-5.7-9.1
				l-5.6-4c2.4-1,4.6-2.6,6.2-4.7l0.6-0.8c2.2-3,3.1-6.7,2.5-10.3c-0.6-3.7-2.6-6.9-5.7-9.1l-90.7-64.6c-7.8-5.6-17-8.7-26.6-9
				l-10.4-7.3l0.9-1.2c0.8-1.1,1.1-2.4,0.9-3.8c-0.2-1.3-0.9-2.5-2-3.3l-29.1-20.7l-63.3-45c-2.2-1.6-5.3-1.1-6.9,1.1L492,589.4
				c-0.8,1.1-1.1,2.4-0.9,3.8c0.2,1.3,0.9,2.5,2,3.3l63.3,45.1l29.1,20.7c0.9,0.6,1.9,0.9,2.9,0.9c1.5,0,3.1-0.7,4-2l1.9-2.6
				l8.8,6.3l2.7,39.3c0.5,6.8,3.3,13.2,8.1,18.1l2.5,2.6c2.4,2.5,4.5,5.3,6.1,8.4c-0.7-0.1-1.3-0.1-2-0.1c-4.5,0-8.7,2.1-11.3,5.7
				l-0.2,0.3c-2.2,3-3.1,6.7-2.5,10.3c0.3,2.1,1.1,4.1,2.3,5.7c-3.6,0.6-6.9,2.6-9.1,5.5c-2.2,3-3.1,6.7-2.5,10.3
				c0.6,3.7,2.6,6.9,5.7,9.1l5.6,4c-2.4,1-4.6,2.6-6.2,4.7l-0.6,0.8c-2.2,3-3.1,6.7-2.5,10.3c0.6,3.7,2.6,6.9,5.7,9.1l90.7,64.6
				c7.8,5.6,17,8.7,26.6,9l10.4,7.3l-0.9,1.2c-0.8,1.1-1.1,2.4-0.9,3.8c0.2,1.3,0.9,2.5,2,3.3l29.1,20.7l63.3,45
				c0.9,0.6,1.9,0.9,2.9,0.9c1.5,0,3.1-0.7,4-2l47.3-64.5c0.8-1.1,1.1-2.4,0.9-3.8C880,893.3,879.3,892.1,878.2,891.3z M723.9,872.7
				c-8.1,0-15.9-2.5-22.4-7.2l-90.7-64.6c-0.9-0.6-1.4-1.5-1.6-2.5c-0.2-1,0.1-2,0.7-2.8l0.6-0.8c0.7-1,2-1.6,3.3-1.6
				c0.9,0,1.7,0.3,2.4,0.8l41.3,29.4c1.2,0.8,2.5,1.3,4,1.3c2.2,0,4.2-1,5.5-2.8c1.1-1.5,1.5-3.3,1.2-5.1c-0.3-1.8-1.3-3.4-2.8-4.4
				l-56.6-40.3c-0.9-0.6-1.4-1.5-1.6-2.5c-0.2-1,0.1-2,0.7-2.8c0.7-1,2-1.6,3.3-1.6c0.9,0,1.7,0.3,2.4,0.8l50.8,36.1
				c1.3,0.9,2.8,1.4,4.4,1.4c2.4,0,4.7-1.2,6.1-3.1c1.2-1.6,1.7-3.6,1.4-5.7c-0.3-2-1.4-3.8-3.1-4.9l-39.9-28.4
				c1.5,0.5,3.2,0.8,4.8,0.8c2.7,0,5.3-0.7,7.5-2l35.8,25.5c1.1,0.8,2.5,1.2,3.9,1.2c2.1,0,4.1-1,5.4-2.7c1.1-1.4,1.5-3.2,1.2-5
				c-0.3-1.8-1.2-3.3-2.7-4.3L653,749c0.8-3.5,1.1-7,1.1-10.5l77.5,55.2c1.1,0.8,2.4,1.1,3.7,0.9l4.1-0.7c1.3-0.2,2.5-0.9,3.3-2
				c0.8-1.1,1.1-2.4,0.9-3.7l-1.1-6.9c-0.2-1-0.6-1.8-1.2-2.6l-4.2-4.6c-2.9-3.2-5.2-6.8-6.8-10.6c2.6-0.9,5-2.6,6.7-4.9l0.8-1.1
				c0.3-0.4,0.6-0.8,0.8-1.3c2.3,5,5.4,9.7,9.3,13.8l2.5,2.6c3.1,3.2,5,7.4,5.3,11.8l2.8,41.7c0.1,1.5,0.9,2.9,2.1,3.7l10.6,7.6
				l-32.6,44.5l-11.7-8.3C725.9,873,724.9,872.7,723.9,872.7z M612.9,661.7c-0.1-1.5-0.9-2.9-2.1-3.7l-10.6-7.6l32.6-44.5l11.7,8.3
				c0.8,0.6,1.8,0.9,2.9,0.9c8.1,0,15.9,2.5,22.4,7.2l90.7,64.6c0.9,0.6,1.4,1.5,1.6,2.5c0.2,1-0.1,2-0.7,2.8l-0.6,0.8
				c-0.7,1-2,1.6-3.3,1.6c-0.9,0-1.7-0.3-2.4-0.8L714,664.5c-1.2-0.8-2.5-1.3-4-1.3c-2.2,0-4.2,1-5.5,2.8c-1.1,1.5-1.5,3.3-1.2,5.1
				c0.3,1.8,1.3,3.4,2.8,4.4l54.5,38.8c-0.5,0.1-1,0.3-1.4,0.7l-2.4,2.5c-1,1-0.9,2.6,0.1,3.5c0.5,0.5,1.1,0.7,1.7,0.7
				c0.7,0,1.3-0.3,1.8-0.8l2.4-2.5c0.5-0.5,0.7-1.2,0.7-1.9c0.4,0.5,0.7,1.1,0.8,1.8c0.2,1-0.1,2-0.7,2.8c-0.7,1-2,1.6-3.3,1.6
				c-0.9,0-1.7-0.3-2.4-0.8l-50.8-36.1c-1.3-0.9-2.8-1.4-4.4-1.4c-2.4,0-4.7,1.2-6.1,3.1c-1.2,1.6-1.7,3.6-1.4,5.7
				c0.3,2,1.4,3.8,3.1,4.9l54.1,38.5c-0.7,0-1.5,0.2-2,0.8l-2.3,2.6c-0.9,1-0.8,2.6,0.2,3.5c0.5,0.4,1.1,0.6,1.7,0.6
				c0.7,0,1.4-0.3,1.9-0.8l2.3-2.6c0.4-0.5,0.6-1.1,0.6-1.7c0.1,0.3,0.2,0.5,0.2,0.8c0.2,1-0.1,2-0.7,2.8l-0.2,0.3
				c-0.7,1-2,1.6-3.3,1.6c-0.9,0-1.7-0.3-2.4-0.8l-58.4-41.6c-1.1-0.8-2.5-1.2-3.9-1.2c-2.1,0-4.1,1-5.4,2.7c-1.1,1.4-1.5,3.2-1.2,5
				c0.3,1.8,1.2,3.3,2.7,4.3l43.5,31c-0.4,0.1-0.8,0.3-1.2,0.7l-3.2,3.4c-0.9,1-0.9,2.6,0.1,3.5c0.5,0.5,1.1,0.7,1.7,0.7
				c0.7,0,1.3-0.3,1.8-0.8l3.2-3.4c0.5-0.5,0.7-1.2,0.7-1.9c0.7,0.6,1.1,1.4,1.2,2.2c0.2,1-0.1,2-0.7,2.8l-0.8,1.1
				c-0.7,1-2,1.6-3.3,1.6c-0.9,0-1.7-0.3-2.4-0.8l-83.4-59.4c-0.9-0.6-1.9-0.9-2.9-0.9c-0.3,0-0.5,0-0.8,0.1l-4.1,0.7
				c-1.3,0.2-2.5,0.9-3.3,2c-0.8,1.1-1.1,2.4-0.9,3.7l1.1,6.9c0.2,1,0.6,1.8,1.2,2.6l4.2,4.6c8.7,9.6,11.8,22.5,8.5,34.9l-1.3,1.6
				c-1.1,1.3-2.8,1.9-4.5,1.6l-0.2-3.2c0-0.4-0.1-0.8-0.1-1.3c1.2-0.4,2.5-0.5,3.7-0.5c1.4,0.1,2.6-0.9,2.7-2.3
				c0.1-1.4-0.9-2.6-2.3-2.7c-1.6-0.1-3.2,0-4.7,0.4c-1.7-9.2-6.1-17.7-12.7-24.5l-2.5-2.6c-3.1-3.2-5-7.4-5.3-11.8L612.9,661.7z
				 M558.2,630.5L503,591.2l41.4-56.4l55.1,39.2L558.2,630.5z M566.3,636.3l41.4-56.4l20.9,14.9l-41.4,56.4L566.3,636.3z
				 M719.4,762.8c1.8,5.7,4.6,11.1,8.4,15.8L654,726.1c-0.6-0.5-1.3-0.9-2-1.2c-1.8-5.7-4.6-11.1-8.4-15.8l73.8,52.5
				C718,762.1,718.7,762.5,719.4,762.8z M626.9,749.1l0.3,6.2c0,0.7,0.2,1.4,0.5,2l-9.9-7c-0.9-0.6-1.4-1.5-1.6-2.5
				c-0.2-1,0.1-2,0.7-2.8l0.2-0.3c0.7-1,2-1.6,3.3-1.6c0.9,0,1.7,0.3,2.4,0.8l3.9,2.8C626.8,747.4,626.9,748.2,626.9,749.1z
				 M784.1,836.6l20.9,14.9l-19,26l-22.3,30.5L742.7,893L784.1,836.6z M813.2,857.3l55.1,39.2L826.9,953l-55.1-39.2L813.2,857.3z"/>
			<path fill="#37474F" d="M741.3,851.4c0.4,0.2,0.7,0.3,1.1,0.3c0.9,0,1.8-0.5,2.2-1.4c0.6-1.2,0.1-2.7-1.1-3.3
				c-8.3-4.1-15-11.4-18.1-20.1c-3.2-8.6-2.9-18.4,0.7-26.8c0.5-1.3,0-2.7-1.3-3.3c-1.3-0.5-2.7,0-3.3,1.3
				c-4.2,9.6-4.5,20.8-0.8,30.6C724.3,838.4,731.8,846.7,741.3,851.4z"/>
			<path fill="#37474F" d="M699.5,780.8c-14.8,15.6-26.6,33.6-35,53.4c-0.5,1.3,0.1,2.7,1.3,3.3c0.3,0.1,0.6,0.2,1,0.2
				c1,0,1.9-0.6,2.3-1.5c8.1-19.2,19.6-36.7,34-51.9c1-1,0.9-2.6-0.1-3.5C702.1,779.7,700.5,779.8,699.5,780.8z"/>
			<path fill="#37474F" d="M702,799.8c-1.1-0.8-2.7-0.5-3.5,0.6l-12.6,17.8c-0.8,1.1-0.5,2.7,0.6,3.5c0.4,0.3,0.9,0.5,1.4,0.5
				c0.8,0,1.6-0.4,2-1.1l12.6-17.8C703.4,802.2,703.1,800.6,702,799.8z"/>
			<path fill="#FFFFFF" d="M788.2,857c0.4-0.6,0.6-1.3,0.5-2.1c-0.1-0.7-0.5-1.4-1.2-1.8c-0.5-0.4-1.1-0.5-1.7-0.5
				c-0.9,0-1.8,0.4-2.4,1.2c-0.4,0.6-0.6,1.3-0.5,2.1c0.1,0.7,0.5,1.4,1.2,1.8C785.4,858.5,787.3,858.2,788.2,857z"/>
			<path fill="#37474F" d="M781.2,861.7c1.4,1,2.9,1.5,4.6,1.5c2.5,0,4.9-1.2,6.4-3.2c1.2-1.7,1.7-3.8,1.4-5.8
				c-0.3-2.1-1.5-3.9-3.2-5.1c-1.4-1-2.9-1.5-4.6-1.5c-2.5,0-4.9,1.2-6.4,3.2c-1.2,1.7-1.7,3.8-1.4,5.8
				C778.4,858.7,779.5,860.5,781.2,861.7z M783,855.8c-0.1-0.7,0.1-1.5,0.5-2.1c0.5-0.7,1.4-1.2,2.4-1.2c0.6,0,1.2,0.2,1.7,0.5
				c0.6,0.4,1,1.1,1.2,1.8c0.1,0.7-0.1,1.5-0.5,2.1c-0.9,1.2-2.8,1.5-4.1,0.6C783.5,857.2,783.1,856.6,783,855.8z"/>
			<path fill="#F8C48E" d="M623.5,717.8c6.6,6.8,11,15.3,12.7,24.5c1.5-0.4,3.1-0.5,4.7-0.4c1.4,0.1,2.4,1.3,2.3,2.7
				c-0.1,1.4-1.3,2.4-2.7,2.3c-1.3-0.1-2.5,0.1-3.7,0.5c0,0.4,0.1,0.8,0.1,1.3l0.2,3.2c1.6,0.3,3.4-0.3,4.5-1.6l1.3-1.6
				c3.3-12.3,0.2-25.3-8.5-34.9l-4.2-4.6c-0.7-0.7-1.1-1.6-1.2-2.6l-1.1-6.9c-0.2-1.3,0.1-2.7,0.9-3.7c0.8-1.1,2-1.8,3.3-2l4.1-0.7
				c0.3,0,0.5-0.1,0.8-0.1c1,0,2,0.3,2.9,0.9l83.4,59.4c0.7,0.5,1.5,0.8,2.4,0.8c1.3,0,2.5-0.6,3.3-1.6l0.8-1.1
				c0.6-0.8,0.8-1.8,0.7-2.8c-0.1-0.9-0.6-1.6-1.2-2.2c0,0.7-0.2,1.3-0.7,1.9l-3.2,3.4c-0.5,0.5-1.2,0.8-1.8,0.8
				c-0.6,0-1.2-0.2-1.7-0.7c-1-0.9-1-2.5-0.1-3.5l3.2-3.4c0.3-0.4,0.7-0.6,1.2-0.7l-43.5-31c-1.5-1-2.4-2.6-2.7-4.3
				c-0.3-1.8,0.1-3.5,1.2-5c1.2-1.7,3.3-2.7,5.4-2.7c1.4,0,2.7,0.4,3.9,1.2l58.4,41.6c0.7,0.5,1.5,0.8,2.4,0.8
				c1.3,0,2.5-0.6,3.3-1.6l0.2-0.3c0.6-0.8,0.8-1.8,0.7-2.8c0-0.3-0.1-0.5-0.2-0.8c0,0.6-0.2,1.2-0.6,1.7l-2.3,2.6
				c-0.5,0.6-1.2,0.8-1.9,0.8c-0.6,0-1.2-0.2-1.7-0.6c-1-0.9-1.1-2.5-0.2-3.5l2.3-2.6c0.5-0.6,1.2-0.9,2-0.8l-54.1-38.5
				c-1.7-1.2-2.8-2.9-3.1-4.9c-0.3-2,0.2-4,1.4-5.7c1.4-1.9,3.7-3.1,6.1-3.1c1.6,0,3.1,0.5,4.4,1.4l50.8,36.1
				c0.7,0.5,1.5,0.8,2.4,0.8c1.3,0,2.5-0.6,3.3-1.6c0.6-0.8,0.9-1.8,0.7-2.8c-0.1-0.7-0.4-1.2-0.8-1.8c0.1,0.7-0.2,1.4-0.7,1.9
				l-2.4,2.5c-0.5,0.5-1.1,0.8-1.8,0.8c-0.6,0-1.2-0.2-1.7-0.7c-1-1-1-2.5-0.1-3.5l2.4-2.5c0.4-0.4,0.9-0.6,1.4-0.7L706,675.6
				c-1.5-1.1-2.5-2.6-2.8-4.4c-0.3-1.8,0.1-3.6,1.2-5.1c1.3-1.7,3.3-2.8,5.5-2.8c1.4,0,2.8,0.4,4,1.3l41.3,29.4
				c0.7,0.5,1.5,0.8,2.4,0.8c1.3,0,2.5-0.6,3.3-1.6l0.6-0.8c0.6-0.8,0.9-1.8,0.7-2.8c-0.2-1-0.7-1.9-1.6-2.5l-90.7-64.6
				c-6.6-4.7-14.3-7.2-22.4-7.2c-1,0-2-0.3-2.9-0.9l-11.7-8.3l-32.6,44.5l10.6,7.6c1.2,0.9,2,2.2,2.1,3.7l2.8,41.7
				c0.3,4.4,2.2,8.6,5.3,11.8L623.5,717.8z M755,689.8l1.8-2.3c0.9-1.1,2.4-1.3,3.5-0.4c1.1,0.9,1.3,2.4,0.4,3.5l-1.8,2.3
				c-0.5,0.6-1.2,1-2,1c-0.5,0-1.1-0.2-1.5-0.5C754.3,692.4,754.1,690.9,755,689.8z"/>
			<polygon fill="#9CC967" points="628.6,594.7 607.7,579.8 566.3,636.3 587.2,651.2 			"/>
			<polygon fill="#7FB442" points="503,591.2 558.2,630.5 599.5,574 544.4,534.8 			"/>
			<path fill="#37474F" d="M755.4,693.3c0.5,0.4,1,0.5,1.5,0.5c0.7,0,1.5-0.3,2-1l1.8-2.3c0.9-1.1,0.7-2.7-0.4-3.5
				c-1.1-0.9-2.7-0.7-3.5,0.4l-1.8,2.3C754.1,690.9,754.3,692.4,755.4,693.3z"/>
		</g>
		<g>
			<path fill="#F48FB2" d="M175.4,762.4c4,0,6.6-2.2,6.6-8v-43.7c0-5.8-2.5-8-6.6-8c-4,0-6.6,2.2-6.6,8v43.7
				C168.8,760.2,171.3,762.4,175.4,762.4z"/>
			<polygon fill="#F48FB2" points="270.5,706.5 270.3,706.5 264.3,747.4 276.5,747.4 			"/>
			<path fill="#F48FB2" d="M136.3,753.6v-42c0-5.8-2.4-7.9-6.5-7.9h-7.2v57.7h7.2C133.9,761.5,136.3,759.4,136.3,753.6z"/>
			<path fill="#F48FB2" d="M74.7,786.3h341v-103h-341V786.3z M335.9,692.2h34.6v11.5h-21.9v22.5H366v11.5h-17.4v23.7h21.9V773h-34.6
				V692.2z M291.1,692.2h39.3v11.5h-13.3V773h-12.7v-69.3h-13.3V692.2z M261.8,692.2h18.6l12.9,80.8h-12.8l-2.2-14.7h-15.6
				l-2.2,14.7h-11.7L261.8,692.2z M202.7,692.2h15.9l12.8,48.4h0.2v-48.4H243V773H230l-15.6-58.6h-0.2V773h-11.4V692.2z
				 M156.1,711.6c0-12.9,6.8-20.3,19.3-20.3c12.5,0,19.3,7.4,19.3,20.3v42c0,12.9-6.8,20.3-19.3,20.3c-12.5,0-19.3-7.4-19.3-20.3
				V711.6z M110,692.2h20.1c12.7,0,18.9,7,18.9,20V753c0,12.9-6.2,20-18.9,20H110V692.2z"/>
			<path fill="#37474F" d="M420.7,673.3h-351c-2.8,0-5,2.2-5,5v113c0,2.8,2.2,5,5,5h351c2.8,0,5-2.2,5-5v-113
				C425.7,675.5,423.4,673.3,420.7,673.3z M415.7,786.3h-341v-103h341V786.3z"/>
			<path fill="#37474F" d="M149,753v-40.9c0-12.9-6.2-20-18.9-20H110V773h20.1C142.8,773,149,766,149,753z M122.7,761.5v-57.7h7.2
				c4,0,6.5,2.1,6.5,7.9v42c0,5.8-2.4,7.9-6.5,7.9H122.7z"/>
			<path fill="#37474F" d="M175.4,773.9c12.5,0,19.3-7.4,19.3-20.3v-42c0-12.9-6.8-20.3-19.3-20.3c-12.5,0-19.3,7.4-19.3,20.3v42
				C156.1,766.5,162.9,773.9,175.4,773.9z M168.8,710.8c0-5.8,2.5-8,6.6-8c4,0,6.6,2.2,6.6,8v43.7c0,5.8-2.5,8-6.6,8
				c-4,0-6.6-2.2-6.6-8V710.8z"/>
			<polygon fill="#37474F" points="214.2,714.5 214.4,714.5 230,773 243,773 243,692.2 231.7,692.2 231.7,740.6 231.5,740.6 
				218.7,692.2 202.7,692.2 202.7,773 214.2,773 			"/>
			<path fill="#37474F" d="M262.7,758.3h15.6l2.2,14.7h12.8l-12.9-80.8h-18.6L248.8,773h11.7L262.7,758.3z M270.3,706.5h0.2l6,40.9
				h-12.2L270.3,706.5z"/>
			<polygon fill="#37474F" points="304.4,773 317.1,773 317.1,703.7 330.4,703.7 330.4,692.2 291.1,692.2 291.1,703.7 304.4,703.7 
							"/>
			<polygon fill="#37474F" points="370.6,761.5 348.6,761.5 348.6,737.8 366,737.8 366,726.2 348.6,726.2 348.6,703.7 370.6,703.7 
				370.6,692.2 335.9,692.2 335.9,773 370.6,773 			"/>
			<path fill="#55707A" d="M298.8,858.4c-1.1-1.1-1.7-2.8-1.4-4.3s1.3-3,2.7-3.7l18.7-9.3l-77.7-29.6l29.6,77.7l9.3-18.7
				c0.7-1.4,2.1-2.5,3.7-2.7c0.3,0,0.5-0.1,0.8-0.1c1.3,0,2.6,0.5,3.5,1.5l43.4,43.4l10.8-10.8L298.8,858.4z"/>
			<path fill="#37474F" d="M310.8,856.3l22.7-11.2c1.8-0.9,2.9-2.7,2.8-4.7c-0.1-2-1.4-3.7-3.2-4.4l-98.9-37.6
				c-1.8-0.7-3.9-0.3-5.3,1.1s-1.8,3.5-1.1,5.3l37.6,98.9c0.7,1.9,2.4,3.1,4.4,3.2c2,0.1,3.8-1,4.7-2.8l11.2-22.7l42,42
				c1,1,2.3,1.5,3.5,1.5s2.6-0.5,3.5-1.5l17.9-17.9c2-2,2-5.1,0-7.1L310.8,856.3z M288,869.3c-0.9-0.9-2.2-1.5-3.5-1.5
				c-0.3,0-0.5,0-0.8,0.1c-1.6,0.3-3,1.3-3.7,2.7l-9.3,18.7l-29.6-77.7l77.7,29.6l-18.7,9.3c-1.4,0.7-2.5,2.1-2.7,3.7
				s0.3,3.2,1.4,4.3l43.4,43.4l-10.8,10.8L288,869.3z"/>
		</g>
		<g>
			<path fill="none" d="M991.5,701.3c-2.2-4.5-4.6-8.9-7.2-13.1c-3.9,3.1-8.4,5.4-13.2,6.7C978.5,695,985.5,697.3,991.5,701.3z"/>
			<path fill="#F78F20" d="M1005.5,697.1c1.6-0.7,3.2-1.5,4.9-2.1c1.6-7.1,5.5-13.3,11.1-17.9c0-0.8,0-1.6,0-2.4
				c-5,2.3-9.2,6.1-12.1,10.9C1007.3,689.2,1006,693.1,1005.5,697.1z"/>
			<path fill="#F78F20" d="M1018.6,727h-3.5c-0.5,2.4-0.7,4.8-0.6,7.2c2.2-1,4.2-2.3,6-3.8L1018.6,727z"/>
			<path fill="#FFEEB3" d="M1194.7,849.6l-36-35.8l-1.4,1.4c-1,1-2.3,1.5-3.5,1.5s-2.6-0.5-3.5-1.5c-2-2-2-5.1,0-7.1l14.4-14.4
				c16.4-16.4,26.6-37.3,29.4-60l-66.4,66.1c-0.2,0.2-0.5,0.5-0.8,0.6c-0.1,0.1-0.2,0.1-0.3,0.2c-0.2,0.1-0.4,0.2-0.6,0.3
				c-0.1,0-0.2,0.1-0.3,0.1c-0.2,0.1-0.4,0.1-0.6,0.2c-0.1,0-0.2,0-0.3,0c-0.2,0-0.4,0.1-0.6,0.1c0,0,0,0,0,0c-0.1,0-0.3,0-0.4,0
				c-0.2,0-0.4,0-0.5-0.1c-0.1,0-0.3-0.1-0.4-0.1c-0.2,0-0.3-0.1-0.5-0.1c-0.2-0.1-0.3-0.2-0.5-0.3c-0.1-0.1-0.3-0.1-0.4-0.2
				c-0.3-0.2-0.5-0.4-0.8-0.6c-1.9-2-1.9-5.1,0-7.1l75.7-75.4c9-9,14.3-20.9,14.9-33.6c0-0.8,0.1-1.7,0.1-2.5v-11.2l-107.8,107.8
				c-2,2-5.1,2-7.1,0c-2-2-2-5.1,0-7.1l116.4-116.4c6.1-6.1,9.9-14,10.7-22.6c0.1-1.2,0.2-2.4,0.2-3.7V614l-127.4,127.4
				c-0.7,0.8-1.7,1.2-2.7,1.4c-0.3,0-0.5,0.1-0.8,0.1c0,0-0.1,0-0.1,0c-0.2,0-0.4,0-0.7,0c-0.1,0-0.1,0-0.2,0c-0.1,0-0.1,0-0.2,0
				c-0.3-0.1-0.5-0.1-0.8-0.2c0,0-0.1,0-0.1,0c-0.3-0.1-0.5-0.2-0.7-0.4c0,0-0.1,0-0.1-0.1c-0.2-0.2-0.5-0.4-0.7-0.6
				c0,0,0,0-0.1-0.1c0,0,0,0,0-0.1c-0.2-0.2-0.4-0.4-0.6-0.7c0,0-0.1-0.1-0.1-0.1c-0.1-0.1-0.1-0.2-0.2-0.3L1062,692
				c-4.1-7.5-11.8-12.1-20.2-12.1c-3.6,0-7,0.8-10.2,2.5c-6.6,3.5-11,9.9-11.9,17.3c-0.2,2.2-1.9,3.9-4,4.3
				c-0.4,0.1-0.8,0.1-1.2,0.1c-7.8,2.9-15,7.3-21.2,12.9h28.2c1.8,0,3.5,1,4.4,2.6l19.2,35.5c0.4,0.8,0.6,1.7,0.6,2.6l-0.3,6.2
				c-1.9,47.4,28.4,89.8,73.9,103.3l66.7,19.8c1.8,0.5,3.1,2,3.5,3.8l13.9,65.7c9.9-3.8,19.4-8.4,28.4-13.6l-25.8-36.6
				c-1.6-2.3-1.1-5.4,1.2-7c2.3-1.6,5.4-1.1,7,1.2l26.2,37.1c8.6-5.7,16.8-12.1,24.3-19.1l-51.3-34.1c-2.3-1.5-2.9-4.6-1.4-6.9
				c1.5-2.3,4.6-2.9,6.9-1.4l53,35.3c6.7-7,12.9-14.4,18.6-22.4l-47.7-15.1c-2.6-0.8-4.1-3.6-3.3-6.3c0.8-2.6,3.6-4.1,6.3-3.3
				l50.4,16c5.8-9.2,10.8-19,15-29.2h-113C1196.9,851,1195.7,850.5,1194.7,849.6z M1032,692.4c2.8,0,5,2.2,5,5s-2.2,5-5,5h-0.4
				c-2.8,0-5-2.2-5-5s2.2-5,5-5H1032z"/>
			<path fill="#37474F" d="M1318.6,841h-118.3l-34.5-34.3l5.9-5.9c0.7-0.7,1.3-1.3,2-2c0.2-0.2,0.4-0.4,0.6-0.7
				c0.4-0.5,0.9-0.9,1.3-1.4c0.3-0.3,0.5-0.6,0.7-0.8c0.4-0.4,0.7-0.8,1.1-1.2c0.3-0.3,0.5-0.6,0.8-0.9c0.3-0.4,0.7-0.8,1-1.2
				c0.3-0.3,0.5-0.7,0.8-1c0.3-0.4,0.6-0.8,0.9-1.2c0.3-0.3,0.5-0.7,0.8-1c0.3-0.4,0.6-0.8,0.9-1.2c0.3-0.4,0.5-0.7,0.8-1.1
				c0.3-0.4,0.6-0.8,0.8-1.2c0.3-0.4,0.5-0.7,0.8-1.1c0.3-0.4,0.5-0.8,0.8-1.2c0.2-0.4,0.5-0.7,0.7-1.1c0.3-0.4,0.5-0.8,0.8-1.2
				c0.2-0.4,0.5-0.8,0.7-1.1c0.2-0.4,0.5-0.8,0.7-1.2c0.2-0.4,0.5-0.8,0.7-1.2c0.2-0.4,0.5-0.8,0.7-1.2c0.2-0.4,0.4-0.8,0.7-1.2
				c0.2-0.4,0.4-0.8,0.7-1.2c0.2-0.4,0.4-0.8,0.6-1.2c0.2-0.4,0.4-0.8,0.6-1.2c0.2-0.4,0.4-0.8,0.6-1.2c0.2-0.4,0.4-0.8,0.6-1.2
				c0.2-0.4,0.4-0.8,0.6-1.2c0.2-0.4,0.4-0.8,0.6-1.2c0.2-0.4,0.4-0.8,0.5-1.2c0.2-0.4,0.4-0.8,0.5-1.2c0.2-0.4,0.3-0.8,0.5-1.3
				c0.2-0.4,0.3-0.8,0.5-1.3c0.2-0.4,0.3-0.8,0.5-1.3c0.2-0.4,0.3-0.8,0.5-1.3c0.2-0.4,0.3-0.9,0.5-1.3c0.1-0.4,0.3-0.9,0.4-1.3
				c0.1-0.4,0.3-0.9,0.4-1.3c0.1-0.4,0.3-0.9,0.4-1.3c0.1-0.4,0.3-0.9,0.4-1.3c0.1-0.4,0.3-0.9,0.4-1.3c0.1-0.4,0.2-0.9,0.4-1.3
				c0.1-0.4,0.2-0.9,0.4-1.3c0.1-0.4,0.2-0.9,0.3-1.3c0.1-0.5,0.2-0.9,0.3-1.4c0.1-0.4,0.2-0.9,0.3-1.3c0.1-0.5,0.2-0.9,0.3-1.4
				c0.1-0.4,0.2-0.9,0.3-1.3c0.1-0.5,0.2-0.9,0.3-1.4c0.1-0.4,0.2-0.9,0.2-1.3c0.1-0.5,0.2-0.9,0.2-1.4c0.1-0.4,0.1-0.9,0.2-1.3
				c0.1-0.5,0.1-1,0.2-1.4c0.1-0.4,0.1-0.9,0.2-1.3c0.1-0.5,0.1-1,0.2-1.5c0-0.4,0.1-0.9,0.1-1.3c0-0.5,0.1-1,0.1-1.5
				c0-0.4,0.1-0.9,0.1-1.3c0-0.5,0.1-1,0.1-1.5c0-0.4,0-0.8,0.1-1.3c0-0.5,0-1,0.1-1.5c0-0.4,0-0.8,0-1.3c0-0.1,0-0.3,0-0.4
				c0.1-0.1,0.2-0.3,0.3-0.4c0.3-0.3,0.6-0.7,0.9-1c0.4-0.4,0.7-0.8,1.1-1.2c0.3-0.3,0.6-0.7,0.8-1c0.3-0.4,0.7-0.8,1-1.3
				c0.3-0.4,0.5-0.7,0.8-1.1c0.3-0.4,0.6-0.9,0.9-1.3c0.3-0.4,0.5-0.7,0.7-1.1c0.3-0.4,0.6-0.9,0.9-1.3c0.2-0.4,0.5-0.8,0.7-1.1
				c0.3-0.5,0.5-0.9,0.8-1.4c0.2-0.4,0.4-0.8,0.6-1.2c0.2-0.5,0.5-0.9,0.7-1.4c0.2-0.4,0.4-0.8,0.6-1.2c0.2-0.5,0.4-1,0.6-1.4
				c0.2-0.4,0.4-0.8,0.5-1.2c0.2-0.5,0.4-1,0.6-1.5c0.2-0.4,0.3-0.8,0.5-1.2c0.2-0.5,0.3-1,0.5-1.5c0.1-0.4,0.3-0.8,0.4-1.3
				c0.2-0.5,0.3-1,0.4-1.6c0.1-0.4,0.2-0.8,0.3-1.3c0.1-0.5,0.2-1.1,0.4-1.6c0.1-0.4,0.2-0.8,0.3-1.3c0.1-0.6,0.2-1.1,0.3-1.7
				c0.1-0.4,0.1-0.8,0.2-1.2c0.1-0.6,0.1-1.2,0.2-1.8c0-0.4,0.1-0.8,0.1-1.2c0.1-0.7,0.1-1.3,0.1-2c0-0.3,0.1-0.7,0.1-1
				c0-1,0.1-2,0.1-3V660c0,0,0.1-0.1,0.1-0.1c0.2-0.2,0.3-0.4,0.5-0.6c0.3-0.4,0.7-0.8,1-1.1c0.2-0.2,0.4-0.5,0.5-0.7
				c0.3-0.4,0.6-0.7,0.8-1.1c0.2-0.3,0.4-0.5,0.6-0.8c0.3-0.4,0.5-0.7,0.8-1.1c0.2-0.3,0.4-0.5,0.5-0.8c0.2-0.4,0.5-0.7,0.7-1.1
				c0.2-0.3,0.3-0.6,0.5-0.9c0.2-0.4,0.4-0.7,0.6-1.1c0.2-0.3,0.3-0.6,0.5-0.9c0.2-0.4,0.4-0.7,0.6-1.1c0.1-0.3,0.3-0.6,0.4-0.9
				c0.2-0.4,0.3-0.7,0.5-1.1c0.1-0.3,0.3-0.6,0.4-0.9c0.2-0.4,0.3-0.8,0.4-1.1c0.1-0.3,0.2-0.6,0.3-1c0.1-0.4,0.3-0.8,0.4-1.2
				c0.1-0.3,0.2-0.6,0.3-1c0.1-0.4,0.2-0.8,0.3-1.2c0.1-0.3,0.2-0.6,0.3-1c0.1-0.4,0.2-0.8,0.3-1.2c0.1-0.3,0.1-0.6,0.2-1
				c0.1-0.4,0.1-0.8,0.2-1.3c0.1-0.3,0.1-0.6,0.2-1c0.1-0.4,0.1-0.9,0.2-1.3c0-0.3,0.1-0.6,0.1-0.9c0-0.5,0.1-1,0.1-1.5
				c0-0.3,0-0.5,0.1-0.8c0-0.8,0.1-1.5,0.1-2.3v-26.3c0-2-1.2-3.8-3.1-4.6c-1.9-0.8-4-0.3-5.4,1.1l-131.2,131.2l-23-42.3
				c-5.8-10.7-16.9-17.4-29-17.4c-3.6,0-7.1,0.6-10.5,1.8c-0.2-1.6-0.5-3.2-0.9-4.8c-0.7-2.7-3.4-4.3-6-3.7
				c-9.9,2.4-18.2,8.6-23.5,17.3c-1.8,2.9-3.1,6.1-4.1,9.3c-1.3-2.3-2.6-4.6-4-6.8c7-3.1,13-8.3,17-15.1c5.3-8.7,6.8-19,4.4-28.9
				c-0.7-2.7-3.4-4.3-6-3.7c-15,3.7-25.8,15.9-28.4,30.2c-1.9-2.2-3.9-4.3-6-6.3c-2-1.9-5.1-1.9-7.1,0c-1.9,2-1.9,5.1,0,7.1
				c0.4,0.4,0.8,0.8,1.2,1.2c-2.4-0.5-4.8-0.7-7.3-0.7c-10.2,0-19.8,4-27,11.2c-0.9,0.9-1.5,2.2-1.5,3.5s0.5,2.6,1.5,3.5
				c7,7,16.3,10.9,26.2,11.2c-6.2,1.7-11.9,5.1-16.6,9.7c-0.9,0.9-1.5,2.2-1.5,3.5s0.5,2.6,1.5,3.5c7.2,7.2,16.8,11.2,27,11.2
				c2.2,0,4.4-0.2,6.5-0.6c0,0.1,0.1,0.2,0.1,0.3c0.8,1.8,2.6,3,4.6,3h19.2c0.5,2,0.9,4,1.3,6c-6.1-3.9-13.1-6-20.5-6
				c-10.2,0-19.8,4-27,11.2c-2,2-2,5.1,0,7.1c7.2,7.2,16.8,11.2,27,11.2c8.3,0,16.1-2.6,22.6-7.4c0.8,12.1,0,24.3-2.7,36.1
				c-0.6,2.7,1.1,5.4,3.8,6c0.4,0.1,0.8,0.1,1.1,0.1c2.3,0,4.3-1.6,4.9-3.9c3.2-13.8,4-28.1,2.7-42.2c4.2-1.3,8-3.3,11.5-5.8
				l10.5,19.3l-0.2,4.9c-2.1,51.9,31.2,98.5,81,113.3l63.8,18.9l14.5,68.4c0.3,1.4,1.2,2.6,2.4,3.3c0.8,0.4,1.6,0.6,2.4,0.6
				c0.6,0,1.1-0.1,1.7-0.3l0.5-0.2c56.6-19.9,100.8-63.6,121.4-119.9c0.6-1.5,0.3-3.2-0.6-4.6C1321.8,841.8,1320.2,841,1318.6,841z
				 M1296.3,880.3l-50.4-16c-2.6-0.8-5.4,0.6-6.3,3.3c-0.8,2.6,0.6,5.4,3.3,6.3l47.7,15.1c-5.6,8-11.8,15.4-18.6,22.4l-53-35.3
				c-2.3-1.5-5.4-0.9-6.9,1.4c-1.5,2.3-0.9,5.4,1.4,6.9l51.3,34.1c-7.6,7-15.7,13.4-24.3,19.1l-26.2-37.1c-1.6-2.3-4.7-2.8-7-1.2
				c-2.3,1.6-2.8,4.7-1.2,7l25.8,36.6c-9,5.3-18.5,9.8-28.4,13.6l-13.9-65.7c-0.4-1.8-1.7-3.2-3.5-3.8l-66.7-19.8
				c-45.4-13.5-75.8-56-73.9-103.3l0.3-6.2c0-0.9-0.2-1.8-0.6-2.6l-19.2-35.5c-0.9-1.6-2.6-2.6-4.4-2.6h-28.2
				c6.1-5.6,13.4-10,21.2-12.9c0.4,0,0.8,0,1.2-0.1c2.1-0.4,3.8-2.2,4-4.3c0.8-7.4,5.3-13.9,11.9-17.3c3.2-1.7,6.6-2.5,10.2-2.5
				c8.4,0,16.2,4.6,20.2,12.1l26.2,48.2c0.1,0.1,0.1,0.2,0.2,0.3c0,0,0.1,0.1,0.1,0.1c0.2,0.2,0.4,0.5,0.6,0.7c0,0,0,0,0,0.1
				c0,0,0,0,0.1,0.1c0.2,0.2,0.4,0.4,0.7,0.6c0,0,0.1,0.1,0.1,0.1c0.2,0.1,0.5,0.3,0.7,0.4c0,0,0.1,0,0.1,0c0.3,0.1,0.5,0.2,0.8,0.2
				c0.1,0,0.1,0,0.2,0c0.1,0,0.1,0,0.2,0c0.2,0,0.4,0,0.7,0c0,0,0.1,0,0.1,0c0.3,0,0.5,0,0.8-0.1c1-0.2,1.9-0.6,2.7-1.4L1223.5,614
				v14.2c0,1.2-0.1,2.5-0.2,3.7c-0.8,8.5-4.6,16.4-10.7,22.6l-116.4,116.4c-2,2-2,5.1,0,7.1c2,2,5.1,2,7.1,0l107.8-107.8v11.2
				c0,0.9,0,1.7-0.1,2.5c-0.6,12.7-5.9,24.5-14.9,33.6l-75.7,75.4c-2,1.9-2,5.1,0,7.1c0.2,0.2,0.5,0.5,0.8,0.6
				c0.1,0.1,0.3,0.1,0.4,0.2c0.2,0.1,0.3,0.2,0.5,0.3c0.2,0.1,0.3,0.1,0.5,0.1c0.1,0,0.3,0.1,0.4,0.1c0.2,0,0.3,0,0.5,0.1
				c0.1,0,0.3,0,0.4,0c0,0,0,0,0,0c0.2,0,0.4,0,0.6-0.1c0.1,0,0.2,0,0.3,0c0.2,0,0.4-0.1,0.6-0.2c0.1,0,0.2-0.1,0.3-0.1
				c0.2-0.1,0.4-0.2,0.6-0.3c0.1-0.1,0.2-0.1,0.3-0.2c0.3-0.2,0.5-0.4,0.8-0.6l66.4-66.1c-2.8,22.7-13,43.6-29.4,60l-14.4,14.4
				c-2,2-2,5.1,0,7.1c1,1,2.3,1.5,3.5,1.5s2.6-0.5,3.5-1.5l1.4-1.4l36,35.8c0.9,0.9,2.2,1.5,3.5,1.5h113
				C1307.1,861.3,1302.1,871,1296.3,880.3z M1015.1,727h3.5l1.9,3.4c-1.8,1.5-3.8,2.8-6,3.8C1014.4,731.8,1014.6,729.4,1015.1,727z
				 M1005.3,647c0.5,11.3-5.9,21.9-16.1,26.7C988.7,662.4,995.1,651.8,1005.3,647z M945.1,681.6c4.6-3.1,10-4.7,15.6-4.7
				s11,1.6,15.6,4.7c-4.6,3.1-10,4.7-15.6,4.7S949.7,684.7,945.1,681.6z M991.5,701.3c-6-4-13-6.2-20.4-6.4
				c4.8-1.3,9.2-3.6,13.2-6.7C986.9,692.4,989.3,696.8,991.5,701.3z M1021.5,674.8c0,0.8,0,1.6,0,2.4c-5.6,4.5-9.5,10.8-11.1,17.9
				c-1.7,0.6-3.3,1.3-4.9,2.1c0.4-4,1.8-7.9,3.9-11.4C1012.3,680.9,1016.5,677.1,1021.5,674.8z M970.3,704.9c5.6,0,11,1.6,15.6,4.7
				c-4.6,3.1-10,4.7-15.6,4.7c-5.6,0-11-1.6-15.6-4.7C959.3,706.5,964.7,704.9,970.3,704.9z M981.5,746.5c-5.6,0-11-1.6-15.6-4.7
				c4.6-3.1,10-4.7,15.6-4.7s11,1.6,15.6,4.7C992.5,744.9,987.2,746.5,981.5,746.5z"/>
			<path fill="#37474F" d="M1026.5,697.4c0,2.8,2.2,5,5,5h0.4c2.8,0,5-2.2,5-5s-2.2-5-5-5h-0.4
				C1028.8,692.4,1026.5,694.6,1026.5,697.4z"/>
			<path fill="#F78F20" d="M976.3,681.6c-4.6-3.1-10-4.7-15.6-4.7s-11,1.6-15.6,4.7c4.6,3.1,10,4.7,15.6,4.7
				S971.7,684.7,976.3,681.6z"/>
			<path fill="#F78F20" d="M989.2,673.7c10.2-4.8,16.6-15.4,16.1-26.7C995.1,651.8,988.7,662.4,989.2,673.7z"/>
			<path fill="#F78F20" d="M985.9,709.6c-4.6-3.1-10-4.7-15.6-4.7s-11,1.6-15.6,4.7c4.6,3.1,10,4.7,15.6,4.7
				C976,714.3,981.3,712.6,985.9,709.6z"/>
			<path fill="#F78F20" d="M965.9,741.8c4.6,3.1,10,4.7,15.6,4.7s11-1.6,15.6-4.7c-4.6-3.1-10-4.7-15.6-4.7S970.5,738.8,965.9,741.8
				z"/>
		</g>
	</g>
</g>
</svg>
